<?xml version="1.0" standalone="no"?>
<!DOCTYPE svg PUBLIC "-//W3C//DTD SVG 1.1//EN" "http://www.w3.org/Graphics/SVG/1.1/DTD/svg11.dtd">
<svg width="800px" height="800px" version="1.1" xmlns="http://www.w3.org/2000/svg" xmlns:xlink="http://www.w3.org/1999/xlink" xml:space="preserve" style="fill-rule:evenodd;clip-rule:evenodd;stroke-linejoin:round;stroke-miterlimit:1.41421;">
    <g>
        <g>
            <rect x="-39.3833" y="-18.1487" width="881.195" height="740.542" style="fill:url(#tag1);"/>
        </g>
        <g>
            <g>
                <path d="M422.862,524.926L445.013,717.523L354.987,717.523L377.257,523.892C384.198,527.888 392.466,530.294 401.039,530.294C408.272,530.294 415.288,528.581 422.862,524.926Z" style="fill:white;"/>
            </g>
        </g>
        <g>
            <g>
                <path d="M846.653,748.202C846.653,731.807 833.362,718.517 816.967,718.517L-0.676448,718.517C-17.0714,718.517 -30.3621,731.807 -30.3621,748.202L-30.3621,807.574C-30.3621,823.969 -17.0714,837.259 -0.676448,837.259L816.967,837.259C833.362,837.259 846.653,823.969 846.653,807.574L846.653,748.202Z" style="fill:white;"/>
            </g>
            <g>
                <path d="M733.953,548.155C789.867,548.155 835.194,593.482 835.194,649.396C835.194,705.31 789.867,750.636 733.953,750.636C678.039,750.636 632.712,705.31 632.712,649.396C632.712,593.482 678.039,548.155 733.953,548.155Z" style="fill:white;"/>
            </g>
            <g>
                <path d="M534.096,669.542C561.568,669.542 583.839,691.812 583.839,719.284C583.839,746.756 561.568,769.026 534.096,769.026C506.625,769.026 484.354,746.756 484.354,719.284C484.354,691.812 506.625,669.542 534.096,669.542Z" style="fill:white;"/>
            </g>
            <g>
                <path d="M472.677,684.602C493.432,684.602 510.256,701.426 510.256,722.181C510.256,742.935 493.432,759.759 472.677,759.759C451.923,759.759 435.098,742.935 435.098,722.181C435.098,701.426 451.923,684.602 472.677,684.602Z" style="fill:white;"/>
            </g>
            <g>
                <path d="M472.677,684.602C493.432,684.602 510.256,701.426 510.256,722.181C510.256,742.935 493.432,759.759 472.677,759.759C451.923,759.759 435.098,742.935 435.098,722.181C435.098,701.426 451.923,684.602 472.677,684.602Z" style="fill:white;"/>
            </g>
            <g>
                <path d="M610.071,619.98C647.118,619.98 677.151,650.012 677.151,687.06C677.151,724.107 647.118,754.14 610.071,754.14C573.024,754.14 542.991,724.107 542.991,687.06C542.991,650.012 573.024,619.98 610.071,619.98Z" style="fill:white;"/>
            </g>
            <g>
                <path d="M69.2148,548.155C13.3012,548.155 -32.0257,593.482 -32.0257,649.396C-32.0257,705.31 13.3012,750.636 69.2148,750.636C125.128,750.636 170.455,705.31 170.455,649.396C170.455,593.482 125.128,548.155 69.2148,548.155Z" style="fill:white;"/>
            </g>
            <g>
                <path d="M269.071,669.542C241.6,669.542 219.329,691.812 219.329,719.284C219.329,746.756 241.6,769.026 269.071,769.026C296.543,769.026 318.814,746.756 318.814,719.284C318.814,691.812 296.543,669.542 269.071,669.542Z" style="fill:white;"/>
            </g>
            <g>
                <path d="M330.49,684.602C309.736,684.602 292.911,701.426 292.911,722.181C292.911,742.935 309.736,759.759 330.49,759.759C351.245,759.759 368.069,742.935 368.069,722.181C368.069,701.426 351.245,684.602 330.49,684.602Z" style="fill:white;"/>
            </g>
            <g>
                <path d="M420.452,696.733C434.491,696.733 445.871,708.113 445.871,722.152C445.871,736.191 434.491,747.571 420.452,747.571C406.413,747.571 395.033,736.191 395.033,722.152C395.033,708.113 406.413,696.733 420.452,696.733Z" style="fill:white;"/>
            </g>
            <g>
                <path d="M379.494,696.753C365.455,696.753 354.075,708.134 354.075,722.173C354.075,736.212 365.455,747.592 379.494,747.592C393.533,747.592 404.913,736.212 404.913,722.173C404.913,708.134 393.533,696.753 379.494,696.753Z" style="fill:white;"/>
            </g>
            <g>
                <path d="M193.097,619.98C156.05,619.98 126.017,650.012 126.017,687.06C126.017,724.107 156.05,754.14 193.097,754.14C230.144,754.14 260.177,724.107 260.177,687.06C260.177,650.012 230.144,619.98 193.097,619.98Z" style="fill:white;"/>
            </g>
        </g>
        <g>
            <g>
                <path d="M283.749,558.755C268.136,556.241 281.914,464.354 294.724,430.108C298.904,418.933 306.896,382.18 352.286,350.355C367.379,339.772 372.566,474.713 372.566,474.713C345.912,484.658 325.138,494.672 299.434,545.769C296.434,551.734 290.29,559.808 283.749,558.755Z" style="fill:white;"/>
            </g>
            <g>
                <path d="M516.251,558.755C531.864,556.241 518.086,464.354 505.276,430.108C501.096,418.933 493.104,382.18 447.714,350.355C432.621,339.772 427.434,474.713 427.434,474.713C454.088,484.658 474.862,494.672 500.566,545.769C503.566,551.734 509.71,559.808 516.251,558.755Z" style="fill:white;"/>
            </g>
        </g>
        <g>
            <path d="M483.524,344.225C483.884,350.242 484.049,355.805 484.049,361.439C484.049,445.859 446.986,514.294 401.266,514.294C355.547,514.294 318.483,445.859 318.483,361.439C318.483,353.927 318.777,346.541 319.274,340.308C319.101,338.625 318.97,335.947 318.97,333.24C318.97,120.982 401.611,49.4767 401.611,49.4767C401.611,49.4767 484.252,120.982 484.252,333.24C484.252,336.85 484.021,340.406 483.524,344.225ZM400.824,158.437C419.724,158.437 435.046,173.759 435.046,192.659C435.046,211.56 419.724,226.881 400.824,226.881C381.923,226.881 366.601,211.56 366.601,192.659C366.601,173.759 381.923,158.437 400.824,158.437Z" style="fill:white;"/>
        </g>
    </g>
    <defs>
        <linearGradient id="tag1" x1="0" y1="0" x2="1" y2="0" gradientUnits="userSpaceOnUse" gradientTransform="matrix(2.33151e-13,744.254,-830.624,2.49017e-13,374.212,-25.3105)"><stop offset="0%" style="stop-color:rgb(3,70,171);stop-opacity:1"/><stop offset="100%" style="stop-color:rgb(75,35,96);stop-opacity:1"/></linearGradient>
    </defs>
</svg>
