<?xml version="1.0" standalone="no"?>
<!DOCTYPE svg PUBLIC "-//W3C//DTD SVG 1.1//EN" "http://www.w3.org/Graphics/SVG/1.1/DTD/svg11.dtd">
<svg width="800px" height="800px" version="1.1" xmlns="http://www.w3.org/2000/svg" xmlns:xlink="http://www.w3.org/1999/xlink" xml:space="preserve" style="fill-rule:evenodd;clip-rule:evenodd;stroke-linejoin:round;stroke-miterlimit:1.41421;">
    <g>
        <g>
            <path d="M400,53.4366C430.954,53.4366 684.656,199.912 700.133,226.718C715.61,253.525 715.61,546.475 700.133,573.282C684.656,600.088 430.954,746.563 400,746.563C369.046,746.563 115.344,600.088 99.8673,573.282C84.3904,546.475 84.3904,253.525 99.8673,226.718C115.344,199.912 369.046,53.4366 400,53.4366Z" style="fill:url(#tag1);"/>
            <clipPath id="tag2">
                <path d="M400,53.4366C430.954,53.4366 684.656,199.912 700.133,226.718C715.61,253.525 715.61,546.475 700.133,573.282C684.656,600.088 430.954,746.563 400,746.563C369.046,746.563 115.344,600.088 99.8673,573.282C84.3904,546.475 84.3904,253.525 99.8673,226.718C115.344,199.912 369.046,53.4366 400,53.4366Z"/>
            </clipPath>
            <g clip-path="url(#tag2)">
                <g>
                    <rect x="-52.9367" y="-19.4246" width="881.195" height="740.542" style="fill:url(#tag3);"/>
                </g>
                <g>
                    <g>
                        <path d="M174.537,310.78C174.537,321.905 183.648,330.923 194.887,330.923C183.648,330.923 174.537,339.942 174.537,351.066C174.537,339.942 165.427,330.923 154.188,330.923C165.427,330.923 174.537,321.905 174.537,310.78Z" style="fill:white;fill-opacity:0.505882;"/>
                    </g>
                    <g>
                        <path d="M267.479,192.238C267.479,203.363 276.59,212.381 287.829,212.381C276.59,212.381 267.479,221.4 267.479,232.525C267.479,221.4 258.369,212.381 247.13,212.381C258.369,212.381 267.479,203.363 267.479,192.238Z" style="fill:white;fill-opacity:0.505882;"/>
                    </g>
                    <g>
                        <path d="M222.873,426.964C222.873,438.089 231.983,447.107 243.222,447.107C231.983,447.107 222.873,456.126 222.873,467.251C222.873,456.126 213.762,447.107 202.523,447.107C213.762,447.107 222.873,438.089 222.873,426.964Z" style="fill:white;fill-opacity:0.505882;"/>
                    </g>
                    <g>
                        <path d="M626.701,310.78C626.701,321.905 617.59,330.923 606.351,330.923C617.59,330.923 626.701,339.942 626.701,351.066C626.701,339.942 635.811,330.923 647.05,330.923C635.811,330.923 626.701,321.905 626.701,310.78Z" style="fill:white;fill-opacity:0.505882;"/>
                    </g>
                    <g>
                        <path d="M533.759,192.238C533.759,203.363 524.648,212.381 513.409,212.381C524.648,212.381 533.759,221.4 533.759,232.525C533.759,221.4 542.869,212.381 554.108,212.381C542.869,212.381 533.759,203.363 533.759,192.238Z" style="fill:white;fill-opacity:0.505882;"/>
                    </g>
                    <g>
                        <path d="M578.365,426.964C578.365,438.089 569.255,447.107 558.016,447.107C569.255,447.107 578.365,456.126 578.365,467.251C578.365,456.126 587.476,447.107 598.715,447.107C587.476,447.107 578.365,438.089 578.365,426.964Z" style="fill:white;fill-opacity:0.505882;"/>
                    </g>
                </g>
                <g>
                    <g>
                        <path d="M733.702,662.494C733.702,650.229 723.759,640.285 711.493,640.285L99.7813,640.285C87.5156,640.285 77.5723,650.229 77.5723,662.494L77.5723,706.912C77.5723,719.178 87.5156,729.121 99.7813,729.121L711.493,729.121C723.759,729.121 733.702,719.178 733.702,706.912L733.702,662.494Z" style="fill:rgb(255,112,10);"/>
                    </g>
                    <g>
                        <path d="M649.387,512.831C691.218,512.831 725.129,546.742 725.129,588.573C725.129,630.404 691.218,664.315 649.387,664.315C607.556,664.315 573.645,630.404 573.645,588.573C573.645,546.742 607.556,512.831 649.387,512.831Z" style="fill:rgb(255,112,10);"/>
                    </g>
                    <g>
                        <path d="M499.866,603.645C520.419,603.645 537.08,620.306 537.08,640.859C537.08,661.412 520.419,678.073 499.866,678.073C479.313,678.073 462.652,661.412 462.652,640.859C462.652,620.306 479.313,603.645 499.866,603.645Z" style="fill:rgb(255,112,10);"/>
                    </g>
                    <g>
                        <path d="M453.916,614.912C469.443,614.912 482.031,627.499 482.031,643.026C482.031,658.553 469.443,671.141 453.916,671.141C438.389,671.141 425.802,658.553 425.802,643.026C425.802,627.499 438.389,614.912 453.916,614.912Z" style="fill:rgb(255,112,10);"/>
                    </g>
                    <g>
                        <path d="M453.916,614.912C469.443,614.912 482.031,627.499 482.031,643.026C482.031,658.553 469.443,671.141 453.916,671.141C438.389,671.141 425.802,658.553 425.802,643.026C425.802,627.499 438.389,614.912 453.916,614.912Z" style="fill:rgb(255,112,10);"/>
                    </g>
                    <g>
                        <path d="M556.706,566.566C584.422,566.566 606.891,589.034 606.891,616.751C606.891,644.467 584.422,666.936 556.706,666.936C528.989,666.936 506.52,644.467 506.52,616.751C506.52,589.034 528.989,566.566 556.706,566.566Z" style="fill:rgb(255,112,10);"/>
                    </g>
                    <g>
                        <path d="M152.07,512.831C110.239,512.831 76.3277,546.742 76.3277,588.573C76.3277,630.404 110.239,664.315 152.07,664.315C193.901,664.315 227.812,630.404 227.812,588.573C227.812,546.742 193.901,512.831 152.07,512.831Z" style="fill:rgb(255,112,10);"/>
                    </g>
                    <g>
                        <path d="M301.59,603.645C281.038,603.645 264.376,620.306 264.376,640.859C264.376,661.412 281.038,678.073 301.59,678.073C322.143,678.073 338.805,661.412 338.805,640.859C338.805,620.306 322.143,603.645 301.59,603.645Z" style="fill:rgb(255,112,10);"/>
                    </g>
                    <g>
                        <path d="M347.54,614.912C332.013,614.912 319.426,627.499 319.426,643.026C319.426,658.553 332.013,671.141 347.54,671.141C363.068,671.141 375.655,658.553 375.655,643.026C375.655,627.499 363.068,614.912 347.54,614.912Z" style="fill:rgb(255,112,10);"/>
                    </g>
                    <g>
                        <path d="M414.844,623.988C425.347,623.988 433.862,632.502 433.862,643.005C433.862,653.508 425.347,662.022 414.844,662.022C404.341,662.022 395.827,653.508 395.827,643.005C395.827,632.502 404.341,623.988 414.844,623.988Z" style="fill:rgb(255,112,10);"/>
                    </g>
                    <g>
                        <path d="M384.202,624.003C373.699,624.003 365.185,632.518 365.185,643.02C365.185,653.523 373.699,662.038 384.202,662.038C394.705,662.038 403.219,653.523 403.219,643.02C403.219,632.518 394.705,624.003 384.202,624.003Z" style="fill:rgb(255,112,10);"/>
                    </g>
                    <g>
                        <path d="M244.751,566.566C217.034,566.566 194.566,589.034 194.566,616.751C194.566,644.467 217.034,666.936 244.751,666.936C272.468,666.936 294.936,644.467 294.936,616.751C294.936,589.034 272.468,566.566 244.751,566.566Z" style="fill:rgb(255,112,10);"/>
                    </g>
                </g>
                <g>
                    <g>
                        <path d="M424.349,527.414L447.941,762.905L352.059,762.905L375.778,526.15C383.17,531.037 391.976,533.979 401.106,533.979C408.81,533.979 416.282,531.884 424.349,527.414Z" style="fill:rgb(255,112,10);"/>
                    </g>
                </g>
                <g>
                    <g>
                        <path d="M297.845,553.014C284.185,550.815 296.239,470.43 307.445,440.471C311.102,430.694 318.094,398.542 357.802,370.701C371.006,361.443 375.544,479.492 375.544,479.492C352.226,488.192 334.052,496.952 311.566,541.653C308.941,546.872 303.567,553.935 297.845,553.014Z" style="fill:white;"/>
                    </g>
                    <g>
                        <path d="M501.242,553.014C514.901,550.815 502.848,470.43 491.642,440.471C487.985,430.694 480.993,398.542 441.285,370.701C428.081,361.443 423.543,479.492 423.543,479.492C446.861,488.192 465.035,496.952 487.521,541.653C490.145,546.872 495.52,553.935 501.242,553.014Z" style="fill:white;"/>
                    </g>
                </g>
                <g>
                    <path d="M472.612,365.338C472.927,370.601 473.072,375.468 473.072,380.397C473.072,454.25 440.648,514.119 400.651,514.119C360.654,514.119 328.231,454.25 328.231,380.397C328.231,373.825 328.487,367.364 328.923,361.911C328.771,360.439 328.657,358.096 328.657,355.728C328.657,170.039 400.953,107.485 400.953,107.485C400.953,107.485 473.249,170.039 473.249,355.728C473.249,358.886 473.047,361.997 472.612,365.338ZM400.264,202.806C416.798,202.806 430.202,216.21 430.202,232.745C430.202,249.279 416.798,262.683 400.264,262.683C383.729,262.683 370.325,249.279 370.325,232.745C370.325,216.21 383.729,202.806 400.264,202.806Z" style="fill:white;"/>
                </g>
            </g>
            <path d="M400,53.4366C430.954,53.4366 684.656,199.912 700.133,226.718C715.61,253.525 715.61,546.475 700.133,573.282C684.656,600.088 430.954,746.563 400,746.563C369.046,746.563 115.344,600.088 99.8673,573.282C84.3904,546.475 84.3904,253.525 99.8673,226.718C115.344,199.912 369.046,53.4366 400,53.4366Z" style="fill:none;stroke-width:33.33px;stroke-linecap:round;stroke:rgb(255,112,10);"/>
        </g>
    </g>
    <defs>
        <linearGradient id="tag1" x1="0" y1="0" x2="1" y2="0" gradientUnits="userSpaceOnUse" gradientTransform="matrix(448.279,679.526,-679.526,448.279,138.008,-5.71377)"><stop offset="0%" style="stop-color:rgb(3,113,171);stop-opacity:1"/><stop offset="100%" style="stop-color:rgb(75,35,96);stop-opacity:1"/></linearGradient>
        <linearGradient id="tag3" x1="0" y1="0" x2="1" y2="0" gradientUnits="userSpaceOnUse" gradientTransform="matrix(2.33151e-13,744.254,-830.624,2.49017e-13,360.658,-26.5864)"><stop offset="0%" style="stop-color:rgb(3,70,171);stop-opacity:1"/><stop offset="100%" style="stop-color:rgb(75,35,96);stop-opacity:1"/></linearGradient>
    </defs>
</svg>
