<?xml version="1.0" standalone="no"?>
<!DOCTYPE svg PUBLIC "-//W3C//DTD SVG 1.1//EN" "http://www.w3.org/Graphics/SVG/1.1/DTD/svg11.dtd">
<svg width="800px" height="800px" version="1.1" xmlns="http://www.w3.org/2000/svg" xmlns:xlink="http://www.w3.org/1999/xlink" xml:space="preserve" style="fill-rule:evenodd;clip-rule:evenodd;stroke-linecap:round;stroke-linejoin:round;stroke-miterlimit:1.41421;">
    <g>
        <g>
            <path d="M413.553,54.7125C444.507,54.7125 698.209,201.187 713.686,227.994C729.163,254.801 729.163,547.751 713.686,574.558C698.209,601.364 444.507,747.839 413.553,747.839C382.6,747.839 128.898,601.364 113.421,574.558C97.9438,547.751 97.9438,254.801 113.421,227.994C128.898,201.187 382.6,54.7125 413.553,54.7125Z" style="fill:url(#tag1);"/>
            <clipPath id="tag2">
                <path d="M413.553,54.7125C444.507,54.7125 698.209,201.187 713.686,227.994C729.163,254.801 729.163,547.751 713.686,574.558C698.209,601.364 444.507,747.839 413.553,747.839C382.6,747.839 128.898,601.364 113.421,574.558C97.9438,547.751 97.9438,254.801 113.421,227.994C128.898,201.187 382.6,54.7125 413.553,54.7125Z"/>
            </clipPath>
            <g clip-path="url(#tag2)">
                <g>
                    <g>
                        <path d="M434.35,599.087L455.048,766.136L371.827,766.136L392.53,599.05C398.204,601.006 405.569,602.231 413.496,602.231C421.424,602.231 428.788,601.006 434.35,599.087Z" style="fill:rgb(255,112,10);"/>
                    </g>
                </g>
                <g>
                    <g>
                        <path d="M295.959,630.186C280.346,627.672 294.124,535.785 306.934,501.539C311.114,490.363 319.106,453.611 364.496,421.786C379.589,411.203 384.776,546.144 384.776,546.144C358.122,556.089 337.348,566.102 311.644,617.2C308.644,623.165 302.5,631.239 295.959,630.186Z" style="fill:rgb(230,0,0);"/>
                    </g>
                    <g>
                        <path d="M528.461,630.186C544.074,627.672 530.296,535.785 517.486,501.539C513.306,490.363 505.314,453.611 459.924,421.786C444.831,411.203 439.644,546.144 439.644,546.144C466.298,556.089 487.072,566.102 512.776,617.2C515.776,623.165 521.92,631.239 528.461,630.186Z" style="fill:rgb(230,0,0);"/>
                    </g>
                </g>
                <g>
                    <g>
                        <path d="M496.734,415.656C497.094,421.672 497.259,427.235 497.259,432.87C497.259,517.289 460.196,585.725 414.476,585.725C368.756,585.725 331.693,517.289 331.693,432.87C331.693,425.357 331.987,417.972 332.484,411.738C332.311,410.055 332.18,407.378 332.18,404.67C332.18,192.412 414.821,120.907 414.821,120.907C414.821,120.907 497.462,192.412 497.462,404.67C497.462,408.281 497.231,411.837 496.734,415.656Z" style="fill:url(#tag3);"/>
                    </g>
                    <g>
                        <path d="M414.033,220.887C430.714,220.887 444.237,234.409 444.237,251.09C444.237,267.771 430.714,281.293 414.033,281.293C397.353,281.293 383.83,267.771 383.83,251.09C383.83,234.409 397.353,220.887 414.033,220.887Z" style="fill:white;"/>
                    </g>
                </g>
            </g>
            <path d="M413.553,54.7125C444.507,54.7125 698.209,201.187 713.686,227.994C729.163,254.801 729.163,547.751 713.686,574.558C698.209,601.364 444.507,747.839 413.553,747.839C382.6,747.839 128.898,601.364 113.421,574.558C97.9438,547.751 97.9438,254.801 113.421,227.994C128.898,201.187 382.6,54.7125 413.553,54.7125Z" style="fill:none;stroke-width:33.33px;stroke:rgb(255,112,10);"/>
        </g>
    </g>
    <defs>
        <linearGradient id="tag1" x1="0" y1="0" x2="1" y2="0" gradientUnits="userSpaceOnUse" gradientTransform="matrix(448.279,679.526,-679.526,448.279,151.561,-4.43786)"><stop offset="0%" style="stop-color:rgb(3,113,171);stop-opacity:1"/><stop offset="100%" style="stop-color:rgb(75,35,96);stop-opacity:1"/></linearGradient>
        <linearGradient id="tag3" x1="0" y1="0" x2="1" y2="0" gradientUnits="userSpaceOnUse" gradientTransform="matrix(-1.62362,465.516,-465.516,-1.62362,415.67,114.936)"><stop offset="0%" style="stop-color:rgb(246,192,50);stop-opacity:1"/><stop offset="13%" style="stop-color:rgb(248,202,64);stop-opacity:1"/><stop offset="14%" style="stop-color:rgb(180,180,180);stop-opacity:1"/><stop offset="100%" style="stop-color:rgb(107,107,107);stop-opacity:1"/></linearGradient>
    </defs>
</svg>
