<?xml version="1.0" standalone="no"?>
<!DOCTYPE svg PUBLIC "-//W3C//DTD SVG 1.1//EN" "http://www.w3.org/Graphics/SVG/1.1/DTD/svg11.dtd">
<svg width="646px" height="700px" version="1.1" xmlns="http://www.w3.org/2000/svg" xmlns:xlink="http://www.w3.org/1999/xlink" xml:space="preserve" style="fill-rule:evenodd;clip-rule:evenodd;stroke-linejoin:round;stroke-miterlimit:1.41421;">
    <g>
        <g>
            <g>
                <g>
                    <g>
                        <path d="M476.422,624.11C443.185,624.11 416.239,651.055 416.239,684.293C416.239,717.532 443.185,744.476 476.422,744.476C509.661,744.476 536.606,717.532 536.606,684.293C536.606,651.055 509.661,624.11 476.422,624.11Z" style="fill:white;fill-opacity:0.298039;"/>
                    </g>
                    <g>
                        <path d="M550.733,642.332C525.623,642.332 505.266,662.687 505.266,687.798C505.266,712.909 525.623,733.264 550.733,733.264C575.845,733.264 596.2,712.909 596.2,687.798C596.2,662.687 575.845,642.332 550.733,642.332Z" style="fill:white;fill-opacity:0.298039;"/>
                    </g>
                    <g>
                        <path d="M610.023,657.033C593.037,657.033 579.269,670.803 579.269,687.789C579.269,704.775 593.037,718.543 610.023,718.543C627.009,718.543 640.777,704.775 640.777,687.789C640.777,670.803 627.009,657.033 610.023,657.033Z" style="fill:white;fill-opacity:0.298039;"/>
                    </g>
                    <g>
                        <path d="M384.501,581.084C339.678,581.084 303.341,617.42 303.341,662.244C303.341,707.067 339.678,743.404 384.501,743.404C429.324,743.404 465.661,707.067 465.661,662.244C465.661,617.42 429.324,581.084 384.501,581.084Z" style="fill:white;fill-opacity:0.298039;"/>
                    </g>
                    <g>
                        <path d="M171.403,624.11C204.641,624.11 231.586,651.055 231.586,684.293C231.586,717.532 204.641,744.476 171.403,744.476C138.165,744.476 111.219,717.532 111.219,684.293C111.219,651.055 138.165,624.11 171.403,624.11Z" style="fill:white;fill-opacity:0.298039;"/>
                    </g>
                    <g>
                        <path d="M97.0925,642.332C122.203,642.332 142.559,662.687 142.559,687.798C142.559,712.909 122.203,733.264 97.0925,733.264C71.981,733.264 51.6256,712.909 51.6256,687.798C51.6256,662.687 71.981,642.332 97.0925,642.332Z" style="fill:white;fill-opacity:0.298039;"/>
                    </g>
                    <g>
                        <path d="M37.8025,657.033C54.7883,657.033 68.557,670.803 68.557,687.789C68.557,704.775 54.7883,718.543 37.8025,718.543C20.8167,718.543 7.04804,704.775 7.04804,687.789C7.04804,670.803 20.8167,657.033 37.8025,657.033Z" style="fill:white;fill-opacity:0.298039;"/>
                    </g>
                    <g>
                        <path d="M263.324,581.084C308.148,581.084 344.485,617.42 344.485,662.244C344.485,707.067 308.148,743.404 263.324,743.404C218.501,743.404 182.164,707.067 182.164,662.244C182.164,617.42 218.501,581.084 263.324,581.084Z" style="fill:white;fill-opacity:0.298039;"/>
                    </g>
                </g>
            </g>
            <g>
                <path d="M345.939,504.926L368.09,697.523L278.064,697.523L300.334,503.892C307.275,507.888 315.543,510.294 324.116,510.294C331.349,510.294 338.365,508.581 345.939,504.926Z" style="fill:white;"/>
            </g>
            <g>
                <path d="M206.826,532.755C191.213,530.241 204.991,438.354 217.801,404.108C221.981,392.933 229.973,356.18 275.363,324.355C290.456,313.772 295.643,448.713 295.643,448.713C268.989,458.658 248.215,468.672 222.511,519.769C219.511,525.734 213.367,533.808 206.826,532.755Z" style="fill:white;"/>
                <path d="M439.328,532.755C454.941,530.241 441.163,438.354 428.353,404.108C424.173,392.933 416.181,356.18 370.791,324.355C355.698,313.772 350.511,448.713 350.511,448.713C377.165,458.658 397.939,468.672 423.643,519.769C426.643,525.734 432.787,533.808 439.328,532.755Z" style="fill:white;"/>
            </g>
            <g>
                <path d="M406.601,318.225C406.961,324.242 407.126,329.805 407.126,335.439C407.126,419.859 370.063,488.294 324.343,488.294C278.624,488.294 241.56,419.859 241.56,335.439C241.56,327.927 241.854,320.541 242.351,314.308C242.178,312.625 242.047,309.947 242.047,307.24C242.047,94.982 324.688,23.4767 324.688,23.4767C324.688,23.4767 407.329,94.982 407.329,307.24C407.329,310.85 407.098,314.406 406.601,318.225ZM323.901,132.437C342.801,132.437 358.123,147.759 358.123,166.659C358.123,185.56 342.801,200.881 323.901,200.881C305,200.881 289.678,185.56 289.678,166.659C289.678,147.759 305,132.437 323.901,132.437Z" style="fill:white;"/>
            </g>
        </g>
    </g>
</svg>
