<?xml version="1.0" standalone="no"?>
<!DOCTYPE svg PUBLIC "-//W3C//DTD SVG 1.1//EN" "http://www.w3.org/Graphics/SVG/1.1/DTD/svg11.dtd">
<svg width="800px" height="800px" version="1.1" xmlns="http://www.w3.org/2000/svg" xmlns:xlink="http://www.w3.org/1999/xlink" xml:space="preserve" style="fill-rule:evenodd;clip-rule:evenodd;stroke-linecap:round;stroke-linejoin:round;stroke-miterlimit:1.41421;">
    <g>
        <g>
            <path d="M414.553,54.7125C445.507,54.7125 699.209,201.187 714.686,227.994C730.163,254.801 730.163,547.751 714.686,574.558C699.209,601.364 445.507,747.839 414.553,747.839C383.6,747.839 129.898,601.364 114.421,574.558C98.9438,547.751 98.9438,254.801 114.421,227.994C129.898,201.187 383.6,54.7125 414.553,54.7125Z" style="fill:rgb(111,222,252);"/>
            <clipPath id="tag1">
                <path d="M414.553,54.7125C445.507,54.7125 699.209,201.187 714.686,227.994C730.163,254.801 730.163,547.751 714.686,574.558C699.209,601.364 445.507,747.839 414.553,747.839C383.6,747.839 129.898,601.364 114.421,574.558C98.9438,547.751 98.9438,254.801 114.421,227.994C129.898,201.187 383.6,54.7125 414.553,54.7125Z"/>
            </clipPath>
            <g clip-path="url(#tag1)">
                <g>
                    <path d="M410.096,449.758C392.542,449.758 378.318,440.534 371.063,424.455C364.902,410.786 364.377,396.181 369.562,383.308C373.863,372.636 381.818,364.319 391.383,360.495C399.525,357.239 407.335,355.59 414.603,355.59C427.637,355.59 445.537,360.832 456.8,385.806C461.162,395.467 461.241,408.979 456.988,420.215C452.857,431.132 445.161,439.388 434.726,444.087C426.395,447.85 418.099,449.758 410.096,449.758ZM414.603,390.545C411.846,390.545 408.302,391.376 404.356,392.952C402.903,393.717 398.501,400.28 402.925,410.09C404.491,413.573 406.373,414.807 410.096,414.807C413.072,414.807 416.62,413.914 420.37,412.225C426.268,409.569 425.174,400.897 424.863,400C421.262,392.033 418.576,390.545 414.603,390.545Z" style="fill:white;fill-rule:nonzero;"/>
                </g>
                <g>
                    <path d="M632.521,474.553L564.846,402.162C584.269,376.609 616.503,338.963 616.896,338.508L631.108,321.921L597.933,293.489L583.718,310.077C582.243,311.805 555.824,342.665 535.71,368.427C495.159,316.99 452.083,292.334 407.366,295.13C355.088,298.438 315.985,339.213 295.093,367.198C274.274,341.873 242.946,310.475 241.319,308.851L225.873,293.406L194.983,324.297L210.424,339.742C222.517,351.84 255.136,385.64 268.866,404.56C257.451,417.476 242.474,430.707 229.789,441.899C222.132,448.655 215.525,454.492 210.419,459.598L194.974,475.048L225.873,505.938L241.314,490.489C245.453,486.345 251.596,480.928 258.702,474.658C270.236,464.481 283.463,452.777 295.285,440.346C316.23,468.323 355.25,508.848 407.362,512.147C409.663,512.291 411.96,512.366 414.257,512.366C457.115,512.366 498.476,486.901 537.452,436.64L600.598,504.394ZM410.245,468.546C368.779,465.999 336.134,423.724 322.903,403.676C336.182,383.702 369.024,341.33 410.127,338.727C441.595,336.745 474.433,358.639 507.62,403.649C474.468,448.611 441.63,470.515 410.245,468.546Z" style="fill:white;fill-rule:nonzero;"/>
                </g>
            </g>
            <path d="M414.553,54.7125C445.507,54.7125 699.209,201.187 714.686,227.994C730.163,254.801 730.163,547.751 714.686,574.558C699.209,601.364 445.507,747.839 414.553,747.839C383.6,747.839 129.898,601.364 114.421,574.558C98.9438,547.751 98.9438,254.801 114.421,227.994C129.898,201.187 383.6,54.7125 414.553,54.7125Z" style="fill:none;stroke-width:33.33px;stroke:white;"/>
        </g>
    </g>
</svg>
