<?xml version="1.0" standalone="no"?>
<!DOCTYPE svg PUBLIC "-//W3C//DTD SVG 1.1//EN" "http://www.w3.org/Graphics/SVG/1.1/DTD/svg11.dtd">
<svg width="800px" height="800px" version="1.1" xmlns="http://www.w3.org/2000/svg" xmlns:xlink="http://www.w3.org/1999/xlink" xml:space="preserve" style="fill-rule:evenodd;clip-rule:evenodd;stroke-linecap:round;stroke-linejoin:round;stroke-miterlimit:1.41421;">
    <g>
        <g>
            <path d="M414.553,54.7125C445.507,54.7125 699.209,201.187 714.686,227.994C730.163,254.801 730.163,547.751 714.686,574.558C699.209,601.364 445.507,747.839 414.553,747.839C383.6,747.839 129.898,601.364 114.421,574.558C98.9438,547.751 98.9438,254.801 114.421,227.994C129.898,201.187 383.6,54.7125 414.553,54.7125Z" style="fill:white;"/>
            <clipPath id="tag1">
                <path d="M414.553,54.7125C445.507,54.7125 699.209,201.187 714.686,227.994C730.163,254.801 730.163,547.751 714.686,574.558C699.209,601.364 445.507,747.839 414.553,747.839C383.6,747.839 129.898,601.364 114.421,574.558C98.9438,547.751 98.9438,254.801 114.421,227.994C129.898,201.187 383.6,54.7125 414.553,54.7125Z"/>
            </clipPath>
            <g clip-path="url(#tag1)">
                <g>
                    <path d="M426.429,602.554C426.429,597.292 428.048,590.008 435.737,588.389C447.474,585.96 460.425,597.697 464.067,600.935C463.662,602.149 468.114,630.074 468.114,632.503C468.114,640.597 466.091,641.002 465.281,641.002C457.187,642.216 436.142,619.956 426.429,607.006C426.833,606.196 426.429,604.577 426.429,602.554Z" style="fill:rgb(255,0,0);fill-rule:nonzero;"/>
                    <path d="M464.362,647.136L462.648,646.967L461.056,646.607L459.55,646.108L458.099,645.497L456.677,644.79L455.268,643.995L453.86,643.118L452.446,642.165L451.024,641.14L449.591,640.048L448.126,638.875L445.24,636.416L442.309,633.744L439.383,630.922L436.491,627.993L433.661,625.001L430.927,621.991L428.319,619.008L425.869,616.094L423.609,613.294L419.631,608.129L420.514,605.54L420.514,605.522L420.424,604.34L420.356,602.614L420.382,601.298L420.463,599.988L420.61,598.626L420.834,597.221L421.149,595.78L421.569,594.312L422.109,592.827L422.789,591.339L423.627,589.865L424.639,588.431L425.838,587.066L427.229,585.805L428.731,584.738L429.664,584.195L430.559,583.744L431.492,583.342L432.459,582.991L433.457,582.692L434.523,582.437L436.039,582.181L437.564,582.032L439.072,581.987L440.558,582.037L442.018,582.173L443.45,582.387L444.851,582.67L446.221,583.017L447.559,583.419L448.865,583.87L450.139,584.364L451.422,584.914L453.759,586.049L456.01,587.299L458.12,588.604L460.083,589.931L461.889,591.244L463.527,592.511L464.985,593.696L466.254,594.772L470.249,598.289L470.126,601.363L470.17,601.97L470.553,605.286L471.184,609.988L471.95,615.412L473.44,625.892L473.95,629.766L474.113,631.221L474.188,632.347L474.16,634.139L474.082,635.634L473.952,637.009L473.77,638.28L473.529,639.468L473.221,640.592L472.83,641.668L472.335,642.707L471.712,643.707L470.94,644.647L470.016,645.483L468.978,646.16L467.9,646.64L466.737,646.962L465.74,647.056L464.362,647.136ZM462.016,633.862L462.023,633.725L462.04,632.658L462.016,632.301L461.897,631.232L461.41,627.541L459.928,617.115L459.156,611.644L458.505,606.79L458.163,603.83L457.227,603.037L455.982,602.024L454.604,600.959L453.112,599.874L451.525,598.802L449.865,597.775L448.156,596.826L446.375,595.961L445.548,595.606L444.684,595.271L443.829,594.976L442.985,594.722L442.156,594.513L441.346,594.348L440.557,594.23L439.791,594.159L439.051,594.134L438.335,594.156L437.643,594.223L436.951,594.34L436.611,594.422L436.272,594.523L435.97,594.633L435.7,594.749L435.456,594.872L435.314,594.955L434.848,595.286L434.504,595.598L434.187,595.959L433.889,596.381L433.61,596.872L433.353,597.434L433.124,598.062L432.929,598.746L432.769,599.476L432.648,600.237L432.564,601.014L432.516,601.793L432.502,602.494L432.547,603.638L432.647,604.948L432.65,605.135L433.145,605.776L435.241,608.375L437.536,611.105L439.991,613.913L442.566,616.746L445.222,619.555L447.919,622.285L450.615,624.887L453.269,627.306L455.858,629.512L457.068,630.48L458.256,631.386L459.391,632.205L460.464,632.928L461.461,633.549L462.016,633.862Z" style="fill:black;"/>
                    <path d="M394.456,641.002C388.79,634.931 387.981,617.933 387.981,610.648L387.981,604.577C387.981,591.222 400.527,586.365 402.551,585.556C409.835,585.556 422.382,589.198 425.215,594.055C425.619,594.459 425.619,595.269 425.619,596.078C425.619,596.888 425.215,597.697 424.81,598.911C424.405,599.316 419.549,611.457 415.097,620.766L411.859,629.265C409.431,636.954 405.788,644.239 401.741,644.239C398.908,644.644 396.48,643.43 394.456,641.002Z" style="fill:rgb(255,0,0);fill-rule:nonzero;"/>
                    <path d="M400.712,652.431L398.535,652.279L396.417,651.813L394.425,651.063L392.604,650.076L390.971,648.908L389.522,647.604L388.398,646.371L387.611,645.457L386.789,644.347L386.059,643.214L385.408,642.065L384.824,640.901L384.269,639.658L383.394,637.35L382.646,634.92L382.026,632.461L381.514,629.988L381.094,627.517L380.753,625.07L380.482,622.669L380.273,620.338L380.114,618.072L379.935,614.033L379.887,610.707L379.887,604.459L379.933,602.87L380.082,601.207L380.326,599.591L380.659,598.028L381.078,596.522L381.574,595.077L382.142,593.696L382.772,592.381L383.458,591.135L384.19,589.958L384.962,588.849L385.765,587.808L386.592,586.834L387.491,585.866L389.143,584.293L390.859,582.886L392.533,581.689L394.126,580.683L395.604,579.851L396.931,579.179L398.095,578.642L401.05,577.414L404.422,577.513L406.334,577.669L408.276,577.913L410.245,578.241L412.233,578.649L414.229,579.133L416.22,579.694L418.195,580.332L420.142,581.049L422.05,581.851L423.91,582.749L425.719,583.762L427.473,584.923L429.065,586.202L429.961,587.057L430.754,587.924L431.513,588.893L431.803,589.339L432.232,589.884L433.096,591.633L433.586,593.619L433.704,595.117L433.718,596.493L433.519,598.255L433.085,599.796L432.249,602.151L431.754,603.1L431.167,604.424L428.902,609.708L425.838,616.755L424.134,620.544L422.556,623.923L419.477,632.005L418.515,634.843L417.907,636.455L417.277,638.006L416.605,639.53L415.889,641.023L415.12,642.481L414.289,643.902L413.381,645.286L412.372,646.631L411.23,647.935L409.905,649.188L408.334,650.358L406.621,651.283L405.394,651.753L404.239,652.071L403.012,652.275L402.264,652.317L400.712,652.431ZM400.423,635.526L400.525,635.369L400.965,634.617L401.427,633.742L401.898,632.761L402.369,631.692L402.833,630.549L403.271,629.389L404.241,626.525L407.638,617.608L409.418,613.798L411.033,610.207L414.04,603.292L416.328,597.952L416.646,597.235L416.43,597.114L415.389,596.612L414.204,596.113L412.909,595.636L411.538,595.194L410.123,594.795L408.696,594.449L407.289,594.16L405.933,593.935L404.666,593.775L404.046,593.725L403.978,593.756L403.237,594.132L402.423,594.589L401.57,595.128L400.709,595.744L399.871,596.431L399.016,597.245L398.7,597.586L398.35,597.998L398.021,598.424L397.715,598.864L397.432,599.318L397.174,599.788L396.939,600.277L396.73,600.787L396.546,601.323L396.389,601.889L396.26,602.492L396.163,603.136L396.101,603.83L396.075,604.696L396.075,610.589L396.118,613.557L396.278,617.149L396.411,619.048L396.589,621.036L396.816,623.047L397.094,625.043L397.425,626.987L397.809,628.84L398.242,630.558L398.714,632.095L399.241,633.483L399.457,633.968L399.695,634.442L399.916,634.832L400.111,635.134L400.267,635.345L400.423,635.526ZM418.626,598.771L418.376,598.385L418.464,598.565L418.626,598.771Z" style="fill:black;"/>
                    <path d="M556.747,543.061L551.081,533.348C545.01,522.825 537.725,512.707 531.654,504.208C523.56,493.281 516.68,481.544 514.252,473.45C513.442,470.617 513.847,467.784 515.061,466.165C515.061,465.76 516.275,464.951 517.085,464.951C527.203,462.523 570.102,487.21 580.625,500.161C596.004,519.183 602.479,546.298 598.837,559.654C597.218,565.32 594.385,568.962 589.529,570.986C578.197,575.843 570.507,567.344 556.747,543.061Z" style="fill:rgb(255,0,0);fill-rule:nonzero;"/>
                    <path d="M583.333,578.368L581.86,578.272L580.399,578.05L578.961,577.707L577.557,577.246L576.193,576.677L574.873,576.007L573.596,575.245L572.359,574.398L571.159,573.471L569.989,572.467L568.844,571.389L567.718,570.239L566.606,569.016L565.501,567.719L564.4,566.349L563.279,564.88L561.076,561.789L558.802,558.352L556.457,554.591L554.018,550.495L551.493,546.103L545.848,536.426L543.565,532.578L541.216,528.809L538.8,525.089L536.347,521.432L533.883,517.853L531.44,514.371L526.719,507.743L523.708,503.562L520.792,499.27L518.076,495.014L516.78,492.876L515.557,490.778L514.397,488.704L513.306,486.661L512.287,484.651L511.344,482.678L510.483,480.745L509.708,478.853L509.023,477.002L508.399,475.081L508.025,473.48L507.809,471.845L507.754,470.224L507.862,468.623L508.138,467.046L508.598,465.492L509.27,463.969L509.513,463.583L509.658,463.129L510.799,461.655L511.706,460.84L512.545,460.254L513.411,459.771L514.387,459.353L515.582,459.01L516.184,458.943L516.711,458.843L517.826,458.73L519.676,458.734L521.61,458.938L523.562,459.297L525.563,459.788L527.632,460.399L529.775,461.12L531.994,461.945L534.284,462.867L536.64,463.88L539.055,464.977L541.519,466.152L544.024,467.398L546.559,468.708L549.115,470.077L551.68,471.498L554.244,472.964L556.796,474.468L559.325,476.003L561.82,477.565L564.27,479.145L566.664,480.738L568.991,482.337L571.242,483.938L573.405,485.533L575.47,487.12L577.429,488.692L579.272,490.248L580.991,491.786L582.58,493.309L584.033,494.822L585.312,496.3L586.874,498.293L588.342,500.285L589.75,502.315L591.099,504.378L592.388,506.471L593.617,508.589L594.788,510.729L595.901,512.888L596.955,515.061L597.95,517.244L598.888,519.435L599.767,521.629L600.588,523.823L601.351,526.013L602.056,528.196L602.703,530.368L603.291,532.526L603.82,534.667L604.291,536.787L604.702,538.883L605.054,540.952L605.346,542.991L605.577,544.998L605.747,546.97L605.854,548.904L605.898,550.799L605.877,552.652L605.788,554.463L605.63,556.229L605.398,557.951L605.089,559.627L604.695,561.256L604.288,562.586L603.857,563.817L603.376,565.019L602.842,566.19L602.252,567.328L601.601,568.43L600.889,569.493L600.114,570.512L599.275,571.483L598.374,572.4L597.414,573.258L596.398,574.055L595.331,574.787L594.218,575.453L593.062,576.054L591.89,576.58L590.538,577.115L589.138,577.573L587.714,577.935L586.269,578.194L584.806,578.34L583.333,578.368ZM583.616,566.219L584.086,566.21L584.593,566.159L585.145,566.061L585.751,565.906L586.415,565.689L587.167,565.392L587.77,565.121L588.296,564.848L588.774,564.562L589.21,564.262L589.613,563.946L589.988,563.611L590.342,563.25L590.68,562.86L591.005,562.432L591.32,561.962L591.626,561.443L591.923,560.871L592.21,560.242L592.486,559.552L592.75,558.8L592.979,558.052L593.209,557.098L593.405,556.037L593.561,554.877L593.674,553.624L593.739,552.286L593.755,550.87L593.721,549.382L593.634,547.828L593.495,546.214L593.303,544.546L593.058,542.83L592.758,541.07L592.406,539.272L591.999,537.44L591.539,535.58L591.025,533.696L590.459,531.794L589.84,529.876L589.169,527.949L588.445,526.016L587.67,524.082L586.844,522.152L585.968,520.229L585.041,518.319L584.065,516.425L583.04,514.552L581.967,512.703L580.846,510.884L579.679,509.098L578.465,507.349L577.207,505.641L575.938,504.022L575.058,503.005L573.997,501.901L572.74,500.696L571.306,499.412L569.711,498.066L567.971,496.669L566.103,495.234L564.119,493.771L562.034,492.289L559.862,490.796L557.616,489.301L555.308,487.813L552.953,486.339L550.562,484.887L548.149,483.464L545.726,482.08L543.307,480.74L540.905,479.453L538.532,478.226L536.203,477.068L533.931,475.985L531.731,474.986L529.619,474.078L527.609,473.269L525.722,472.566L523.976,471.979L522.397,471.513L521.015,471.174L519.941,470.976L519.984,471.299L520.105,471.819L520.494,473.017L521.022,474.442L521.648,475.971L522.37,477.59L523.181,479.289L524.076,481.055L525.051,482.881L526.1,484.756L527.218,486.672L528.387,488.602L530.932,492.591L533.657,496.601L536.59,500.673L541.354,507.363L543.853,510.924L546.389,514.607L548.934,518.4L551.46,522.292L553.939,526.268L556.313,530.269L562,540.019L564.498,544.364L566.825,548.272L569.019,551.79L571.085,554.914L573.051,557.672L573.959,558.862L574.855,559.977L575.72,560.991L576.551,561.905L577.347,562.719L578.107,563.434L578.828,564.053L579.508,564.578L580.144,565.014L580.736,565.367L581.285,565.646L581.794,565.858L582.27,566.014L582.723,566.122L583.166,566.19L583.616,566.219Z" style="fill:black;"/>
                    <path d="M389.195,354.464C389.195,354.464 376.649,315.611 364.912,299.423C358.032,288.091 347.914,273.926 334.559,275.14C317.965,275.545 309.062,295.376 292.873,301.446C282.35,305.493 254.425,310.755 258.877,301.446C270.209,277.973 315.537,264.617 326.869,235.073C332.13,221.718 309.466,205.529 294.897,203.101C283.969,201.077 278.708,220.099 268.59,225.765C263.734,228.193 251.187,231.026 253.211,225.765C261.71,207.957 271.423,185.293 290.849,178.413C305.419,173.152 321.608,188.531 332.535,199.054C366.936,232.24 395.67,271.497 426.429,306.708L444.641,327.348C444.641,327.348 457.592,343.537 467.71,354.059C467.71,354.059 477.423,352.845 483.898,347.179C489.159,342.727 488.35,337.871 490.374,327.348C491.992,317.635 493.611,300.232 498.873,300.232C506.562,300.232 511.823,332.205 513.847,343.941L515.061,350.417C517.489,364.582 531.25,406.672 531.654,408.696C531.654,409.1 532.059,409.505 532.059,409.505L532.059,409.91C553.104,435.811 568.483,467.379 568.483,496.923C568.483,559.654 513.442,603.363 440.189,603.363C426.429,603.363 413.073,601.34 400.527,597.697L399.718,597.697C399.718,597.697 379.887,596.078 354.39,629.265C349.128,636.145 349.938,642.216 342.653,640.192C340.225,639.383 338.606,637.764 336.987,634.526C333.749,626.837 336.177,609.029 340.225,597.292L341.034,595.674L339.415,594.459C339.01,594.055 297.73,564.106 293.682,521.206C290.04,483.568 309.062,462.523 316.751,450.786L321.203,443.096C326.869,429.336 316.346,409.91 306.633,392.912C300.967,382.794 291.659,367.819 294.087,364.582C296.515,360.535 304.61,364.986 312.704,368.629C319.584,371.867 325.655,376.318 330.511,373.485C334.963,370.248 332.13,362.558 328.083,352.036C324.036,341.918 316.751,326.134 319.584,319.254C320.394,317.635 321.608,316.016 324.036,315.207C331.726,312.374 342.653,325.324 351.557,335.442C362.484,348.393 375.03,362.153 389.195,354.464Z" style="fill:rgb(255,0,0);fill-rule:nonzero;stroke-width:12.14px;stroke:black;"/>
                    <path d="M401.741,502.185C401.741,513.517 411.05,522.825 422.382,522.825C433.714,522.825 443.022,513.517 443.022,502.185C443.022,490.853 433.714,481.544 422.382,481.544C411.05,481.544 401.741,490.853 401.741,502.185Z" style="fill:white;fill-rule:nonzero;"/>
                    <path d="M425.215,487.21C429.262,487.21 432.904,488.829 435.332,491.257C437.761,493.686 439.38,497.328 439.38,501.375C439.38,505.422 437.761,509.065 435.332,511.493C432.904,513.921 429.262,515.54 425.215,515.54C421.167,515.54 417.525,513.921 415.097,511.493C412.668,509.065 411.05,505.422 411.05,501.375C411.05,497.328 412.668,493.686 415.097,491.257C417.525,488.829 421.167,487.21 425.215,487.21Z" style="fill:black;fill-rule:nonzero;"/>
                    <path d="M500.491,502.185C500.491,513.517 509.8,522.825 521.132,522.825C532.464,522.825 541.772,513.517 541.772,502.185C541.772,490.853 532.464,481.544 521.132,481.544C509.395,481.544 500.491,490.853 500.491,502.185Z" style="fill:white;fill-rule:nonzero;"/>
                    <path d="M508.99,501.78C508.99,509.874 515.466,516.35 523.56,516.35C531.654,516.35 538.13,509.874 538.13,501.78C538.13,493.686 531.654,487.21 523.56,487.21C515.466,487.21 508.99,493.686 508.99,501.78Z" style="fill:black;fill-rule:nonzero;"/>
                    <path d="M260.496,581.104C256.449,578.271 254.02,573.819 253.616,568.153C252.806,554.393 263.734,528.896 282.35,513.112C295.301,502.185 341.439,485.996 351.152,490.043C351.961,490.448 353.175,491.257 353.175,491.662C353.985,493.281 353.985,496.114 352.771,498.947C349.128,506.636 340.225,516.35 330.107,526.063C322.417,533.348 313.513,541.847 305.824,551.155L298.539,559.654C280.732,580.699 271.423,587.984 260.496,581.104Z" style="fill:rgb(255,0,0);fill-rule:nonzero;"/>
                    <path d="M268.645,589.689L267.143,589.653L265.649,589.493L264.174,589.213L262.725,588.819L261.309,588.318L259.927,587.717L258.579,587.024L257.13,586.166L255.993,585.321L255.02,584.506L254.098,583.637L253.229,582.715L252.416,581.743L251.662,580.724L250.967,579.66L250.335,578.556L249.765,577.413L249.259,576.236L248.817,575.026L248.439,573.787L248.125,572.522L247.874,571.232L247.685,569.92L247.554,568.536L247.502,566.867L247.534,565.187L247.644,563.474L247.83,561.728L248.088,559.949L248.416,558.138L248.811,556.296L249.274,554.425L249.802,552.528L250.394,550.605L251.049,548.661L251.767,546.697L252.547,544.717L253.389,542.724L254.29,540.72L255.252,538.709L256.273,536.695L257.353,534.68L258.491,532.669L259.687,530.664L260.94,528.67L262.251,526.69L263.618,524.727L265.042,522.786L266.521,520.869L268.056,518.982L269.647,517.127L271.293,515.308L272.994,513.53L274.75,511.797L276.56,510.112L278.462,508.447L280.006,507.222L281.722,505.996L283.571,504.786L285.548,503.584L287.647,502.389L289.861,501.2L292.179,500.018L294.593,498.845L297.091,497.684L299.663,496.54L302.298,495.414L304.983,494.312L307.708,493.237L310.461,492.193L313.23,491.185L316.003,490.217L318.769,489.293L321.517,488.418L324.234,487.596L326.91,486.831L329.534,486.129L332.096,485.493L334.586,484.928L336.996,484.438L339.318,484.03L341.55,483.708L343.689,483.48L345.739,483.354L347.715,483.346L349.643,483.48L351.45,483.788L352.51,484.078L353.683,484.504L354.988,485.232L356.176,486.031L357.446,487.142L358.594,488.67L358.894,489.612L359.238,490.473L359.612,492.015L359.791,493.55L359.805,495.088L359.668,496.638L359.383,498.2L358.947,499.772L358.335,501.398L357.374,503.291L356.377,505.039L355.279,506.79L354.087,508.548L352.805,510.316L351.44,512.096L349.996,513.89L348.478,515.695L346.891,517.513L345.228,519.357L341.775,523.023L338.116,526.73L334.322,530.431L328.365,536.117L325.335,539.071L322.287,542.114L319.251,545.237L316.257,548.433L313.333,551.696L310.441,555.097L303.149,563.604L299.878,567.423L296.749,570.965L293.763,574.209L290.899,577.158L288.158,579.789L286.777,581.029L285.432,582.177L284.096,583.253L282.762,584.257L281.427,585.188L280.084,586.044L278.729,586.823L277.357,587.522L275.963,588.135L274.545,588.657L273.101,589.081L271.633,589.399L270.145,589.604L268.645,589.689ZM268.447,577.539L268.969,577.51L269.517,577.434L270.103,577.307L270.735,577.122L271.417,576.871L272.154,576.546L272.945,576.144L273.791,575.658L274.689,575.085L275.637,574.424L276.636,573.672L277.683,572.829L278.777,571.896L279.894,570.891L282.339,568.545L284.941,565.867L287.731,562.835L290.717,559.454L293.929,555.704L301.207,547.213L304.186,543.71L307.304,540.231L310.467,536.855L313.644,533.586L316.808,530.427L319.935,527.379L325.891,521.694L329.556,518.119L333.034,514.596L336.3,511.127L337.81,509.454L339.256,507.797L340.62,506.174L341.894,504.593L343.071,503.058L344.144,501.576L345.108,500.155L345.956,498.804L346.681,497.532L347.207,496.496L347.393,496.002L347.531,495.504L347.319,495.489L346.137,495.494L344.705,495.582L343.061,495.757L341.236,496.021L339.255,496.369L337.137,496.799L334.902,497.306L332.567,497.886L330.148,498.534L327.66,499.245L325.117,500.014L322.535,500.836L319.927,501.707L317.308,502.622L314.69,503.575L312.088,504.561L309.516,505.576L306.988,506.613L304.517,507.669L302.118,508.737L299.804,509.812L297.591,510.887L295.492,511.957L293.525,513.014L291.705,514.05L290.05,515.056L288.579,516.019L287.314,516.923L286.239,517.776L284.696,519.127L283.152,520.563L281.647,522.049L280.182,523.58L278.758,525.154L277.376,526.765L276.038,528.411L274.744,530.086L273.497,531.788L272.296,533.511L271.144,535.252L270.041,537.006L268.989,538.77L267.988,540.539L267.04,542.308L266.145,544.073L265.304,545.831L264.519,547.575L263.791,549.303L263.119,551.008L262.505,552.686L261.95,554.332L261.454,555.942L261.018,557.509L260.643,559.029L260.328,560.495L260.073,561.901L259.879,563.241L259.744,564.508L259.668,565.694L259.647,566.792L259.677,567.77L259.745,568.482L259.849,569.208L259.983,569.897L260.145,570.55L260.334,571.168L260.548,571.752L260.785,572.304L261.045,572.826L261.328,573.319L261.632,573.786L261.96,574.229L262.312,574.649L262.687,575.048L263.09,575.427L263.52,575.787L263.862,576.042L264.452,576.391L265.13,576.739L265.761,577.014L266.35,577.223L266.903,577.373L267.428,577.472L267.938,577.527L268.447,577.539Z" style="fill:black;"/>
                    <path d="M490.374,566.534C490.374,566.534 471.757,566.534 458.806,555.202" style="fill:none;stroke-width:8.09px;stroke:black;"/>
                </g>
            </g>
            <path d="M414.553,54.7125C445.507,54.7125 699.209,201.187 714.686,227.994C730.163,254.801 730.163,547.751 714.686,574.558C699.209,601.364 445.507,747.839 414.553,747.839C383.6,747.839 129.898,601.364 114.421,574.558C98.9438,547.751 98.9438,254.801 114.421,227.994C129.898,201.187 383.6,54.7125 414.553,54.7125Z" style="fill:none;stroke-width:33.33px;stroke:rgb(255,0,0);"/>
        </g>
    </g>
</svg>
