<?xml version="1.0" standalone="no"?>
<!DOCTYPE svg PUBLIC "-//W3C//DTD SVG 1.1//EN" "http://www.w3.org/Graphics/SVG/1.1/DTD/svg11.dtd">
<svg width="800px" height="800px" version="1.1" xmlns="http://www.w3.org/2000/svg" xmlns:xlink="http://www.w3.org/1999/xlink" xml:space="preserve" style="fill-rule:evenodd;clip-rule:evenodd;stroke-linecap:round;stroke-linejoin:round;stroke-miterlimit:1.41421;">
    <g>
        <g>
            <path d="M413.553,54.7125C444.507,54.7125 698.209,201.187 713.686,227.994C729.163,254.801 729.163,547.751 713.686,574.558C698.209,601.364 444.507,747.839 413.553,747.839C382.6,747.839 128.898,601.364 113.421,574.558C97.9438,547.751 97.9438,254.801 113.421,227.994C128.898,201.187 382.6,54.7125 413.553,54.7125Z" style="fill:white;"/>
            <clipPath id="tag1">
                <path d="M413.553,54.7125C444.507,54.7125 698.209,201.187 713.686,227.994C729.163,254.801 729.163,547.751 713.686,574.558C698.209,601.364 444.507,747.839 413.553,747.839C382.6,747.839 128.898,601.364 113.421,574.558C97.9438,547.751 97.9438,254.801 113.421,227.994C128.898,201.187 382.6,54.7125 413.553,54.7125Z"/>
            </clipPath>
            <g clip-path="url(#tag1)">
                <g>
                    <g>
                        <path d="M28.6188,922.448L27.5933,921.847L27.5933,485.87L28.6188,485.269L418.025,703.22L418.025,704.497L28.6188,922.448ZM31.1948,916.879L411.791,703.858L31.1948,490.838L31.1948,916.879Z" style="fill:rgb(217,217,217);"/>
                    </g>
                    <g>
                        <path d="M416.254,922.448L26.8474,704.497L26.8474,703.22L416.254,485.269L417.279,485.87L417.279,921.847L416.254,922.448ZM413.678,916.879L413.678,490.838L33.0811,703.858L413.678,916.879Z" style="fill:rgb(217,217,217);"/>
                    </g>
                    <g>
                        <path d="M222.436,487.766L222.436,919.951" style="fill:rgb(229,229,229);fill-opacity:0.517647;fill-rule:nonzero;"/>
                        <rect x="220.635" y="487.766" width="3.60153" height="432.184" style="fill:rgb(217,217,217);"/>
                    </g>
                    <g>
                        <g>
                            <path d="M28.2094,491.005L27.1839,490.404L27.1839,54.4269L28.2094,53.8257L417.616,271.777L417.616,273.054L28.2094,491.005ZM30.7855,485.436L411.382,272.415L30.7855,59.3948L30.7855,485.436Z" style="fill:rgb(217,217,217);"/>
                        </g>
                        <g>
                            <path d="M415.844,491.005L26.438,273.054L26.438,271.777L415.844,53.8257L416.87,54.4269L416.87,490.404L415.844,491.005ZM413.268,485.436L413.268,59.3948L32.6717,272.415L413.268,485.436Z" style="fill:rgb(217,217,217);"/>
                        </g>
                        <g>
                            <path d="M222.027,56.3233L222.027,488.507" style="fill:rgb(229,229,229);fill-opacity:0.517647;fill-rule:nonzero;"/>
                            <rect x="220.226" y="56.3233" width="3.60153" height="432.184" style="fill:rgb(217,217,217);"/>
                        </g>
                    </g>
                    <g>
                        <g>
                            <path d="M414.539,491.965L413.514,491.364L413.514,55.3869L414.539,54.7857L803.946,272.737L803.946,274.014L414.539,491.965ZM417.115,486.396L797.712,273.375L417.115,60.3548L417.115,486.396Z" style="fill:rgb(217,217,217);"/>
                        </g>
                        <g>
                            <path d="M802.174,491.965L412.768,274.014L412.768,272.737L802.174,54.7857L803.2,55.3869L803.2,491.364L802.174,491.965ZM799.598,486.396L799.598,60.3548L419.002,273.375L799.598,486.396Z" style="fill:rgb(217,217,217);"/>
                        </g>
                        <g>
                            <path d="M608.357,57.2833L608.357,489.467" style="fill:rgb(229,229,229);fill-opacity:0.517647;fill-rule:nonzero;"/>
                            <rect x="606.556" y="57.2833" width="3.60153" height="432.184" style="fill:rgb(217,217,217);"/>
                        </g>
                    </g>
                    <g>
                        <g>
                            <path d="M414.949,923.408L413.923,922.807L413.923,486.83L414.949,486.229L804.355,704.18L804.355,705.457L414.949,923.408ZM417.525,917.839L798.121,704.818L417.525,491.798L417.525,917.839Z" style="fill:rgb(217,217,217);"/>
                        </g>
                        <g>
                            <path d="M802.584,923.408L413.177,705.457L413.177,704.18L802.584,486.229L803.609,486.83L803.609,922.807L802.584,923.408ZM800.008,917.839L800.008,491.798L419.411,704.818L800.008,917.839Z" style="fill:rgb(217,217,217);"/>
                        </g>
                        <g>
                            <path d="M608.766,488.726L608.766,920.911" style="fill:rgb(229,229,229);fill-opacity:0.517647;fill-rule:nonzero;"/>
                            <rect x="606.966" y="488.726" width="3.60153" height="432.184" style="fill:rgb(217,217,217);"/>
                        </g>
                    </g>
                </g>
                <g>
                    <path d="M412.87,332.734L485.357,374.657L412.87,416.581L412.87,332.734Z" style="fill:rgb(240,93,125);fill-rule:nonzero;"/>
                    <path d="M340.384,374.657L412.87,416.581L340.384,458.504L340.384,374.657Z" style="fill:rgb(243,120,136);fill-rule:nonzero;"/>
                    <path d="M412.87,416.581L485.357,458.504L412.87,500.427L412.87,416.581Z" style="fill:rgb(243,120,136);fill-rule:nonzero;"/>
                    <path d="M412.87,416.581L340.384,374.657L412.87,332.734L412.87,416.581Z" style="fill:rgb(243,199,136);fill-rule:nonzero;"/>
                    <path d="M412.87,500.427L340.384,458.504L412.87,416.581L412.87,500.427Z" style="fill:rgb(140,83,127);fill-rule:nonzero;"/>
                    <path d="M485.357,458.504L412.87,416.581L485.357,374.657L485.357,458.504Z" style="fill:rgb(242,164,176);fill-rule:nonzero;"/>
                    <path d="M340.384,458.504L412.87,500.427L340.384,542.35L340.384,458.504Z" style="fill:rgb(240,93,125);fill-rule:nonzero;"/>
                    <path d="M340.384,542.35L412.87,584.273L340.384,626.196L340.384,542.35Z" style="fill:rgb(59,160,168);fill-rule:nonzero;"/>
                    <path d="M267.898,500.427L340.384,542.35L267.898,584.273L267.898,500.427Z" style="fill:rgb(63,106,135);fill-rule:nonzero;"/>
                    <path d="M412.87,584.273L340.384,542.35L412.87,500.427L412.87,584.273Z" style="fill:rgb(243,120,136);fill-rule:nonzero;"/>
                    <path d="M340.384,626.196L267.898,584.273L340.384,542.35L340.384,626.196Z" style="fill:rgb(39,94,137);fill-rule:nonzero;"/>
                    <path d="M340.384,542.35L267.898,500.427L340.384,458.504L340.384,542.35Z" style="fill:rgb(243,120,136);fill-rule:nonzero;"/>
                    <path d="M485.357,542.35L557.843,584.273L485.357,626.196L485.357,542.35Z" style="fill:rgb(59,160,168);fill-rule:nonzero;"/>
                    <path d="M412.87,500.427L485.357,542.35L412.87,584.273L412.87,500.427Z" style="fill:rgb(240,93,125);fill-rule:nonzero;"/>
                    <path d="M485.357,458.504L557.843,500.427L485.357,542.35L485.357,458.504Z" style="fill:rgb(243,199,136);fill-rule:nonzero;"/>
                    <path d="M557.843,584.273L485.357,542.35L557.843,500.427L557.843,584.273Z" style="fill:rgb(140,83,127);fill-rule:nonzero;"/>
                    <path d="M485.357,626.196L412.87,584.273L485.357,542.35L485.357,626.196Z" style="fill:rgb(39,94,137);fill-rule:nonzero;"/>
                    <path d="M485.357,542.35L412.87,500.427L485.357,458.504L485.357,542.35Z" style="fill:rgb(242,164,176);fill-rule:nonzero;"/>
                </g>
                <g>
                    <path d="M528.091,419.015L531.472,450.119L561.9,463.913L576.776,392.238L528.091,419.015Z" style="fill:rgb(140,83,127);fill-rule:nonzero;"/>
                    <path d="M595.033,324.62L576.776,392.238L528.091,419.015L595.033,324.62Z" style="fill:rgb(55,160,168);fill-opacity:0.6;fill-rule:nonzero;"/>
                    <path d="M606.798,388.452L576.776,392.238L561.9,463.913L606.798,388.452Z" style="fill:rgb(63,106,135);fill-rule:nonzero;"/>
                    <path d="M595.033,324.62L576.776,392.238L606.798,388.452L595.033,324.62Z" style="fill:rgb(76,147,207);fill-rule:nonzero;"/>
                    <path d="M507.535,351.397L511.592,292.569L549.729,278.775L507.535,351.397Z" style="fill:rgb(63,106,135);fill-rule:nonzero;"/>
                    <path d="M486.844,277.288L485.357,336.791L507.535,351.397L511.592,292.569L486.844,277.288Z" style="fill:rgb(140,83,127);fill-rule:nonzero;"/>
                    <path d="M549.729,278.775L527.55,222.517L511.592,292.569L549.729,278.775Z" style="fill:rgb(59,142,185);fill-rule:nonzero;"/>
                    <path d="M486.844,277.288L511.592,292.569L527.55,222.517L486.844,277.288Z" style="fill:rgb(55,160,168);fill-opacity:0.6;fill-rule:nonzero;"/>
                    <path d="M297.65,419.015L294.269,450.119L263.841,463.913L248.965,392.238L297.65,419.015Z" style="fill:rgb(140,83,127);fill-rule:nonzero;"/>
                    <path d="M230.708,324.62L248.965,392.238L297.65,419.015L230.708,324.62Z" style="fill:rgb(55,160,168);fill-opacity:0.6;fill-rule:nonzero;"/>
                    <path d="M218.942,388.452L248.965,392.238L263.841,463.913L218.942,388.452Z" style="fill:rgb(63,106,135);fill-rule:nonzero;"/>
                    <path d="M230.708,324.62L248.965,392.238L218.942,388.452L230.708,324.62Z" style="fill:rgb(76,147,207);fill-rule:nonzero;"/>
                    <path d="M318.205,351.397L314.148,292.569L276.012,278.775L318.205,351.397Z" style="fill:rgb(63,106,135);fill-rule:nonzero;"/>
                    <path d="M338.896,277.288L340.384,336.791L318.205,351.397L314.148,292.569L338.896,277.288Z" style="fill:rgb(140,83,127);fill-rule:nonzero;"/>
                    <path d="M276.012,278.775L298.19,222.517L314.148,292.569L276.012,278.775Z" style="fill:rgb(59,142,185);fill-rule:nonzero;"/>
                    <path d="M338.896,277.288L314.148,292.569L298.19,222.517L338.896,277.288Z" style="fill:rgb(55,160,168);fill-opacity:0.6;fill-rule:nonzero;"/>
                    <path d="M338.896,277.288L340.384,336.791L314.148,292.569L338.896,277.288Z" style="fill:rgb(140,83,127);fill-rule:nonzero;"/>
                    <path d="M412.87,255.38L463.719,206.559L441.27,307.851L412.87,255.38Z" style="fill:rgb(63,106,135);fill-rule:nonzero;"/>
                    <path d="M412.87,139.347L412.87,255.38L463.719,206.559L412.87,139.347Z" style="fill:rgb(55,160,168);fill-opacity:0.8;fill-rule:nonzero;"/>
                    <path d="M441.27,307.851L412.87,255.38L384.471,307.851L412.87,289.189L441.27,307.851Z" style="fill:rgb(134,74,120);fill-rule:nonzero;"/>
                    <path d="M412.87,255.38L362.022,206.559L384.471,307.851L412.87,255.38Z" style="fill:rgb(243,120,136);fill-rule:nonzero;"/>
                    <path d="M412.87,139.347L412.87,255.38L362.022,206.559L412.87,139.347Z" style="fill:rgb(242,164,176);fill-rule:nonzero;"/>
                </g>
            </g>
            <path d="M413.553,54.7125C444.507,54.7125 698.209,201.187 713.686,227.994C729.163,254.801 729.163,547.751 713.686,574.558C698.209,601.364 444.507,747.839 413.553,747.839C382.6,747.839 128.898,601.364 113.421,574.558C97.9438,547.751 97.9438,254.801 113.421,227.994C128.898,201.187 382.6,54.7125 413.553,54.7125Z" style="fill:none;stroke-width:33.33px;stroke:rgb(239,93,147);"/>
        </g>
    </g>
</svg>
