<?xml version="1.0" standalone="no"?>
<!DOCTYPE svg PUBLIC "-//W3C//DTD SVG 1.1//EN" "http://www.w3.org/Graphics/SVG/1.1/DTD/svg11.dtd">
<svg width="800px" height="800px" version="1.1" xmlns="http://www.w3.org/2000/svg" xmlns:xlink="http://www.w3.org/1999/xlink" xml:space="preserve" style="fill-rule:evenodd;clip-rule:evenodd;stroke-linecap:round;stroke-linejoin:round;stroke-miterlimit:1.41421;">
    <g>
        <g>
            <path d="M411.436,77.847C591.572,77.847 737.601,223.876 737.601,404.012C737.601,584.147 591.572,730.176 411.436,730.176C231.3,730.176 85.2714,584.147 85.2714,404.012C85.2714,223.876 231.3,77.847 411.436,77.847Z" style="fill:white;stroke-width:33.33px;stroke:white;"/>
        </g>
        <g>
            <path d="M411.362,105.878C575.877,105.878 709.243,239.245 709.243,403.76C709.243,568.276 575.877,701.642 411.362,701.642C246.846,701.642 113.48,568.276 113.48,403.76C113.48,239.245 246.846,105.878 411.362,105.878Z" style="fill:white;"/>
            <clipPath id="tag1">
                <path d="M411.362,105.878C575.877,105.878 709.243,239.245 709.243,403.76C709.243,568.276 575.877,701.642 411.362,701.642C246.846,701.642 113.48,568.276 113.48,403.76C113.48,239.245 246.846,105.878 411.362,105.878Z"/>
            </clipPath>
            <g clip-path="url(#tag1)">
                <g>
                    <path d="M416.579,192.982L515.041,389.905L318.117,389.905L416.579,192.982Z" style="fill:white;stroke-width:33.33px;stroke:white;"/>
                </g>
                <g>
                    <path d="M241.377,470.414C246.636,464.598 252.996,460.274 260.455,457.442C267.915,454.61 275.538,453.194 283.326,453.194C295.666,453.194 305.742,456.343 313.556,462.639C321.369,468.935 325.276,477.216 325.276,487.482C325.276,495.371 322.38,502.97 316.59,510.277C310.799,517.585 301.33,525.841 288.181,535.045L326.034,535.045L326.034,558.333L244.791,558.333L244.791,537.548C267.801,520.961 282.441,509.734 288.712,503.867C294.983,498.001 298.118,492.539 298.118,487.482C298.118,484.144 296.74,481.527 293.984,479.631C291.228,477.734 287.827,476.786 283.781,476.786C273.414,476.786 264.21,480.554 256.169,488.089L241.377,470.414Z" style="fill:black;"/>
                    <path d="M336.275,506.598C336.275,497.091 337.83,488.392 340.94,480.503C344.05,472.614 349.057,466.09 355.96,460.932C362.863,455.774 371.119,453.194 380.727,453.194C390.336,453.194 398.592,455.774 405.495,460.932C412.398,466.09 417.405,472.614 420.515,480.503C423.625,488.392 425.18,497.091 425.18,506.598C425.18,513.628 424.27,520.278 422.449,526.549C420.629,532.82 417.936,538.496 414.37,543.579C410.805,548.661 406.14,552.707 400.375,555.716C394.609,558.725 388.06,560.23 380.727,560.23C373.395,560.23 366.845,558.725 361.08,555.716C355.315,552.707 350.65,548.661 347.085,543.579C343.519,538.496 340.826,532.82 339.006,526.549C337.185,520.278 336.275,513.628 336.275,506.598ZM363.356,506.598C363.356,526.574 369.146,536.562 380.727,536.562C392.308,536.562 398.099,526.574 398.099,506.598C398.099,486.723 392.308,476.786 380.727,476.786C369.146,476.786 363.356,486.723 363.356,506.598Z" style="fill:black;"/>
                    <path d="M429.883,490.441L466.067,454.712L489.28,454.712L489.28,558.333L462.502,558.333L462.502,488.923L445.131,506.446L429.883,490.441Z" style="fill:black;"/>
                    <path d="M504.906,545.134L519.319,526.321C526.652,533.148 535.629,536.562 546.249,536.562C551.609,536.562 555.769,535.424 558.727,533.148C561.686,530.873 563.165,528.041 563.165,524.652C563.165,521.011 561.762,518.103 558.955,515.929C556.148,513.754 552.166,512.667 547.007,512.667C538.815,512.667 531.987,515.246 526.526,520.404L508.016,515.929L508.016,454.712L583.191,454.712L583.191,478L534.718,478L534.718,498.026C540.433,492.514 547.842,489.783 556.945,489.834C566.149,489.834 574.013,492.919 580.536,499.088C587.06,505.258 590.322,513.4 590.322,523.514C590.322,534.691 586.39,543.604 578.526,550.254C570.662,556.904 560.004,560.23 546.552,560.23C529.054,560.23 515.172,555.198 504.906,545.134Z" style="fill:black;"/>
                </g>
                <g>
                    <path d="M241.377,470.414C246.636,464.598 252.996,460.274 260.455,457.442C267.915,454.61 275.538,453.194 283.326,453.194C295.666,453.194 305.742,456.343 313.556,462.639C321.369,468.935 325.276,477.216 325.276,487.482C325.276,495.371 322.38,502.97 316.59,510.277C310.799,517.585 301.33,525.841 288.181,535.045L326.034,535.045L326.034,558.333L244.791,558.333L244.791,537.548C267.801,520.961 282.441,509.734 288.712,503.867C294.983,498.001 298.118,492.539 298.118,487.482C298.118,484.144 296.74,481.527 293.984,479.631C291.228,477.734 287.827,476.786 283.781,476.786C273.414,476.786 264.21,480.554 256.169,488.089L241.377,470.414Z" style="fill:black;"/>
                    <path d="M336.275,506.598C336.275,497.091 337.83,488.392 340.94,480.503C344.05,472.614 349.057,466.09 355.96,460.932C362.863,455.774 371.119,453.194 380.727,453.194C390.336,453.194 398.592,455.774 405.495,460.932C412.398,466.09 417.405,472.614 420.515,480.503C423.625,488.392 425.18,497.091 425.18,506.598C425.18,513.628 424.27,520.278 422.449,526.549C420.629,532.82 417.936,538.496 414.37,543.579C410.805,548.661 406.14,552.707 400.375,555.716C394.609,558.725 388.06,560.23 380.727,560.23C373.395,560.23 366.845,558.725 361.08,555.716C355.315,552.707 350.65,548.661 347.085,543.579C343.519,538.496 340.826,532.82 339.006,526.549C337.185,520.278 336.275,513.628 336.275,506.598ZM363.356,506.598C363.356,526.574 369.146,536.562 380.727,536.562C392.308,536.562 398.099,526.574 398.099,506.598C398.099,486.723 392.308,476.786 380.727,476.786C369.146,476.786 363.356,486.723 363.356,506.598Z" style="fill:black;"/>
                    <path d="M429.883,490.441L466.067,454.712L489.28,454.712L489.28,558.333L462.502,558.333L462.502,488.923L445.131,506.446L429.883,490.441Z" style="fill:black;"/>
                    <path d="M504.906,545.134L519.319,526.321C526.652,533.148 535.629,536.562 546.249,536.562C551.609,536.562 555.769,535.424 558.727,533.148C561.686,530.873 563.165,528.041 563.165,524.652C563.165,521.011 561.762,518.103 558.955,515.929C556.148,513.754 552.166,512.667 547.007,512.667C538.815,512.667 531.987,515.246 526.526,520.404L508.016,515.929L508.016,454.712L583.191,454.712L583.191,478L534.718,478L534.718,498.026C540.433,492.514 547.842,489.783 556.945,489.834C566.149,489.834 574.013,492.919 580.536,499.088C587.06,505.258 590.322,513.4 590.322,523.514C590.322,534.691 586.39,543.604 578.526,550.254C570.662,556.904 560.004,560.23 546.552,560.23C529.054,560.23 515.172,555.198 504.906,545.134Z" style="fill:black;"/>
                </g>
                <g>
                    <path d="M269.748,363.479L283.857,342.694C292.96,351.797 304.035,356.348 317.083,356.348C321.634,356.348 325.212,355.627 327.817,354.186C330.421,352.745 331.723,350.735 331.723,348.155C331.723,346.082 330.269,344.375 327.362,343.035C324.454,341.695 320.825,340.684 316.476,340.001C312.127,339.318 307.436,338.256 302.404,336.815C297.373,335.373 292.682,333.641 288.333,331.619C283.984,329.596 280.368,326.359 277.485,321.909C274.603,317.458 273.161,312.123 273.161,305.903C273.161,296.699 276.828,288.911 284.161,282.539C291.494,276.167 301.532,272.981 314.276,272.981C331.167,272.981 345.201,277.785 356.377,287.394L341.812,307.42C333.215,300.188 323.101,296.572 311.469,296.572C304.035,296.572 300.318,298.949 300.318,303.703C300.318,305.979 302.341,307.787 306.387,309.127C310.433,310.467 315.326,311.731 321.065,312.92C326.805,314.108 332.52,315.663 338.209,317.585C343.899,319.507 348.766,322.832 352.812,327.56C356.858,332.289 358.88,338.218 358.88,345.349C358.88,355.918 355.1,364.338 347.54,370.609C339.979,376.88 329.372,380.016 315.717,380.016C296.753,379.965 281.43,374.453 269.748,363.479Z" style="fill:black;"/>
                    <path d="M371.321,378.119L371.321,274.498L423.208,274.498C434.384,274.498 443.184,277.785 449.606,284.359C456.029,290.934 459.24,299.151 459.24,309.013C459.24,318.773 456.029,326.928 449.606,333.477C443.184,340.026 434.384,343.301 423.208,343.301L398.023,343.301L398.023,378.119L371.321,378.119ZM398.023,320.012L419.187,320.012C422.93,320.012 426.014,319.026 428.442,317.054C430.869,315.082 432.083,312.389 432.083,308.975C432.083,305.561 430.857,302.843 428.404,300.82C425.951,298.797 422.879,297.786 419.187,297.786L398.023,297.786L398.023,320.012Z" style="fill:black;"/>
                    <path d="M471.15,378.119L471.15,274.498L523.036,274.498C534.213,274.498 543.012,277.76 549.435,284.283C555.857,290.807 559.069,299.05 559.069,309.013C559.069,317.307 557.046,324.058 553,329.267C548.954,334.476 544.099,338.066 538.435,340.039L559.524,378.119L528.953,378.119L511.506,343.301L497.852,343.301L497.852,378.119L471.15,378.119ZM497.852,320.012L519.016,320.012C522.758,320.012 525.843,319.026 528.27,317.054C530.698,315.082 531.912,312.351 531.912,308.861C531.912,305.422 530.685,302.717 528.233,300.744C525.78,298.772 522.708,297.786 519.016,297.786L497.852,297.786L497.852,320.012Z" style="fill:black;"/>
                </g>
            </g>
            <path d="M411.362,105.878C575.877,105.878 709.243,239.245 709.243,403.76C709.243,568.276 575.877,701.642 411.362,701.642C246.846,701.642 113.48,568.276 113.48,403.76C113.48,239.245 246.846,105.878 411.362,105.878Z" style="fill:none;stroke-width:41.67px;stroke:rgb(34,172,61);"/>
        </g>
        <g>
            <path d="M363.213,84.0716C394.533,78.1451 426.031,78.1451 457.707,84.0716L457.707,133.752L363.213,133.752" style="fill:white;"/>
        </g>
        <g>
            <path d="M686.622,577.545C707.172,552.779 719.252,523.117 724.635,490.491L673.709,467.782L634.954,553.963" style="fill:white;"/>
        </g>
        <g>
            <path d="M138.668,575.794C117.89,551.131 105.84,521.455 100.683,488.728L153.091,465.352L191.846,551.533" style="fill:white;"/>
        </g>
    </g>
</svg>
