<?xml version="1.0" standalone="no"?>
<!DOCTYPE svg PUBLIC "-//W3C//DTD SVG 1.1//EN" "http://www.w3.org/Graphics/SVG/1.1/DTD/svg11.dtd">
<svg width="800px" height="800px" version="1.1" xmlns="http://www.w3.org/2000/svg" xmlns:xlink="http://www.w3.org/1999/xlink" xml:space="preserve" style="fill-rule:evenodd;clip-rule:evenodd;stroke-linecap:round;stroke-linejoin:round;stroke-miterlimit:1.41421;">
    <g>
        <g>
            <path d="M413.553,54.7125C444.507,54.7125 698.209,201.187 713.686,227.994C729.163,254.801 729.163,547.751 713.686,574.558C698.209,601.364 444.507,747.839 413.553,747.839C382.6,747.839 128.898,601.364 113.421,574.558C97.9438,547.751 97.9438,254.801 113.421,227.994C128.898,201.187 382.6,54.7125 413.553,54.7125Z" style="fill:rgb(65,171,220);"/>
            <clipPath id="tag1">
                <path d="M413.553,54.7125C444.507,54.7125 698.209,201.187 713.686,227.994C729.163,254.801 729.163,547.751 713.686,574.558C698.209,601.364 444.507,747.839 413.553,747.839C382.6,747.839 128.898,601.364 113.421,574.558C97.9438,547.751 97.9438,254.801 113.421,227.994C128.898,201.187 382.6,54.7125 413.553,54.7125Z"/>
            </clipPath>
            <g clip-path="url(#tag1)">
                <g>
                    <path d="M66.8621,484.872C71.3218,466.912 255.757,530.617 350.618,514.741C413.382,504.237 477.411,483.532 535.626,467.64C590.684,452.61 659.697,425.326 699.905,419.39C725.627,415.593 763.451,409.761 776.876,432.027C792.576,458.067 798.32,535.228 794.108,575.628C790.39,611.286 774.842,647.128 751.602,674.426C727.477,702.763 690.54,740.246 649.358,745.652C550.177,758.672 253.601,796.008 156.519,752.545C70.6363,714.096 54.5332,534.525 66.8621,484.872Z" style="fill:rgb(65,171,220);"/>
                </g>
                <g>
                    <path d="M73.6338,497.064C73.6338,497.064 194.757,543.967 258.592,548.716C328.095,553.885 416.024,551.013 490.652,528.082C565.279,505.151 643.398,456.901 734.154,479.877C824.91,502.853 746.791,498.258 765.172,524.68C783.553,551.103 780.107,601.651 764.023,638.412C747.94,675.174 667.523,725.722 667.523,725.722L270.035,741.805L190.767,738.359L119.541,646.454L73.6338,497.064Z" style="fill:white;"/>
                    <path d="M270.031,744.474L189.417,740.969L117.135,647.703L70.2347,495.081L71.8755,493.543L79.9019,496.593L86.1556,498.922L94.4637,501.959L104.563,505.573L116.192,509.633L129.092,514.011L135.931,516.275L142.992,518.571L150.238,520.88L157.638,523.186L165.157,525.474L172.764,527.726L180.425,529.926L188.108,532.059L195.779,534.107L203.406,536.054L210.955,537.884L218.392,539.581L225.685,541.129L232.806,542.511L236.28,543.134L239.703,543.71L243.063,544.236L246.358,544.711L249.583,545.132L252.732,545.498L255.803,545.807L258.796,546.057L265.336,546.515L271.985,546.925L278.73,547.284L285.565,547.589L292.485,547.839L299.483,548.03L306.554,548.161L313.692,548.23L320.891,548.235L328.146,548.173L335.45,548.042L342.797,547.84L350.182,547.564L357.599,547.214L365.042,546.785L372.505,546.277L379.982,545.687L387.467,545.013L394.956,544.252L402.441,543.403L409.916,542.463L417.377,541.431L424.817,540.303L432.23,539.079L439.61,537.755L446.952,536.33L454.25,534.802L461.498,533.168L468.689,531.426L475.818,529.574L482.88,527.61L489.869,525.533L496.833,523.325L503.825,520.986L510.847,518.532L517.901,515.98L524.988,513.35L532.109,510.657L546.467,505.154L560.975,499.618L568.295,496.879L575.659,494.185L583.068,491.554L590.525,489.002L598.032,486.548L605.584,484.211L609.388,483.089L613.2,482.005L617.026,480.958L620.866,479.952L624.72,478.988L628.589,478.069L632.472,477.196L636.369,476.373L640.282,475.601L644.21,474.883L648.153,474.222L652.112,473.618L656.087,473.075L660.078,472.595L664.085,472.18L668.108,471.832L672.147,471.554L676.203,471.348L680.276,471.217L684.366,471.162L688.473,471.185L692.598,471.29L696.739,471.478L700.898,471.752L705.074,472.113L709.269,472.565L713.48,473.109L717.71,473.747L721.958,474.483L726.223,475.317L730.507,476.252L734.801,477.29L742.86,479.374L749.976,481.308L756.209,483.105L761.611,484.777L766.224,486.335L768.27,487.082L770.134,487.803L771.832,488.506L773.372,489.191L774.762,489.865L776.012,490.53L777.129,491.193L778.125,491.863L779.007,492.551L779.783,493.273L780.454,494.048L781.01,494.896L781.424,495.827L781.661,496.826L781.696,497.844L781.537,498.819L781.223,499.709L780.802,500.502L780.306,501.211L779.757,501.854L779.166,502.45L778.522,503.027L777.202,504.07L775.756,505.097L772.722,507.147L771.217,508.203L769.782,509.289L768.443,510.427L767.86,510.982L767.308,511.558L766.806,512.139L766.361,512.724L765.974,513.311L765.647,513.899L765.381,514.491L765.175,515.088L765.03,515.698L764.946,516.328L764.927,516.988L764.978,517.691L765.11,518.444L765.333,519.257L765.658,520.133L766.098,521.075L766.663,522.083L767.396,523.208L768.252,524.48L769.108,525.837L769.929,527.227L770.716,528.648L771.469,530.101L772.188,531.583L772.874,533.094L773.527,534.633L774.148,536.2L774.741,537.806L775.819,541.051L776.776,544.406L777.612,547.848L778.328,551.371L778.928,554.968L779.412,558.634L779.785,562.36L780.046,566.14L780.199,569.969L780.246,573.839L780.188,577.743L780.027,581.676L779.765,585.63L779.405,589.598L778.947,593.575L778.393,597.553L777.746,601.526L777.006,605.486L776.176,609.428L775.257,613.344L774.251,617.229L773.159,621.074L771.982,624.874L770.724,628.621L769.384,632.309L767.964,635.932L766.463,639.49L765.623,641.31L764.687,643.148L763.665,644.995L762.56,646.849L761.376,648.712L760.115,650.581L758.782,652.455L757.38,654.336L755.912,656.22L754.38,658.108L752.79,659.997L751.143,661.888L749.442,663.779L747.687,665.675L744.057,669.438L740.26,673.188L736.329,676.907L732.29,680.584L728.168,684.209L723.99,687.77L719.782,691.256L715.571,694.655L711.382,697.956L707.242,701.148L703.177,704.219L699.213,707.157L695.374,709.954L688.197,715.06L681.843,719.452L676.53,723.034L672.466,725.713L668.356,728.357L270.031,744.474ZM270.039,739.136L666.691,723.087L669.555,721.244L673.572,718.596L678.836,715.047L685.134,710.693L692.258,705.626L696.055,702.859L699.981,699.949L704.006,696.908L708.103,693.75L712.245,690.485L716.406,687.127L720.559,683.687L724.677,680.177L728.733,676.61L732.701,672.997L736.553,669.353L740.263,665.689L743.81,662.011L745.503,660.184L747.149,658.354L748.738,656.528L750.269,654.71L751.737,652.901L753.139,651.102L754.471,649.316L755.731,647.544L756.914,645.789L758.018,644.053L759.04,642.338L759.976,640.647L760.823,638.981L761.584,637.335L763.024,633.922L764.394,630.425L765.689,626.861L766.906,623.236L768.045,619.557L769.103,615.831L770.079,612.066L770.97,608.269L771.775,604.447L772.492,600.607L773.119,596.756L773.656,592.902L774.099,589.052L774.448,585.212L774.701,581.391L774.856,577.595L774.912,573.831L774.867,570.108L774.72,566.431L774.47,562.809L774.114,559.248L773.652,555.756L773.083,552.341L772.406,549.009L771.619,545.767L770.721,542.624L769.708,539.571L769.167,538.107L768.593,536.658L767.99,535.239L767.36,533.85L766.701,532.493L766.014,531.167L765.299,529.875L764.556,528.617L763.784,527.393L762.949,526.153L762.097,524.845L761.349,523.51L760.734,522.194L760.251,520.894L759.899,519.611L759.679,518.346L759.587,517.106L759.623,515.895L759.779,514.723L760.048,513.598L760.417,512.525L760.876,511.506L761.41,510.544L762.009,509.636L762.662,508.779L763.36,507.969L764.095,507.203L764.875,506.46L766.444,505.128L768.075,503.892L769.698,502.754L772.718,500.713L774.002,499.801L775.086,498.945L775.49,498.582L775.83,498.24L776.082,497.945L776.244,497.712L776.326,497.559L776.34,497.52L776.312,497.458L776.188,497.269L775.94,496.982L775.545,496.615L774.993,496.184L774.277,495.703L773.396,495.179L772.346,494.62L771.124,494.029L769.727,493.407L768.152,492.755L766.393,492.074L764.456,491.367L759.969,489.852L754.682,488.215L748.538,486.444L741.492,484.529L733.507,482.464L729.312,481.451L725.142,480.54L720.991,479.728L716.857,479.012L712.741,478.391L708.641,477.861L704.559,477.422L700.493,477.07L696.443,476.803L692.409,476.62L688.39,476.518L684.387,476.495L680.399,476.549L676.425,476.677L672.465,476.878L668.52,477.15L664.589,477.489L660.671,477.895L656.767,478.365L652.875,478.897L648.997,479.488L645.131,480.137L641.278,480.841L637.436,481.599L633.607,482.407L629.79,483.265L625.984,484.169L622.189,485.119L618.406,486.11L614.634,487.142L610.872,488.212L607.126,489.317L599.649,491.63L592.217,494.06L584.824,496.59L577.467,499.203L570.146,501.881L562.86,504.607L548.373,510.135L534.007,515.641L526.86,518.344L519.736,520.988L512.634,523.557L505.55,526.032L498.484,528.396L491.435,530.631L484.355,532.736L477.203,534.725L469.987,536.599L462.712,538.361L455.383,540.013L448.007,541.558L440.589,542.998L433.135,544.335L425.651,545.571L418.142,546.709L410.614,547.751L403.074,548.699L395.526,549.555L387.976,550.322L380.431,551.001L372.896,551.596L365.376,552.108L357.878,552.54L350.407,552.893L342.97,553.17L335.571,553.374L328.216,553.506L320.913,553.568L313.665,553.564L306.479,553.494L299.361,553.362L292.316,553.169L285.35,552.918L278.469,552.611L271.679,552.25L264.986,551.837L258.388,551.374L255.314,551.118L252.158,550.801L248.929,550.426L245.632,549.995L242.27,549.51L238.847,548.974L235.367,548.389L231.828,547.754L224.623,546.355L217.245,544.79L209.733,543.076L202.118,541.23L194.432,539.267L186.707,537.205L178.976,535.059L171.271,532.846L163.624,530.582L156.068,528.284L148.635,525.967L141.358,523.648L134.268,521.343L127.397,519.067L114.456,514.676L102.786,510.602L92.6497,506.975L84.3093,503.926L78.0241,501.585L77.7848,501.494L121.947,645.205L192.118,735.748L270.039,739.136Z" style="fill:white;"/>
                </g>
                <g>
                    <g>
                        <path d="M492.642,543.049C484.646,555.434 478.958,571.37 476.389,588.547C486.955,579.309 500.062,577.808 511.379,584.477C514.554,586.353 517.816,588.923 521.194,588.172C524.254,587.479 526.679,584.246 529.191,581.359C539.006,570.1 551.132,563.806 563.257,563.604C560.629,553.558 550.641,544.175 546.686,535.226C544.318,529.856 540.739,529.596 536.928,526.969C521.31,516.288 512.678,551.393 497.059,540.769" style="fill:rgb(255,203,21);fill-rule:nonzero;"/>
                        <path d="M491.286,542.212C482.48,556.012 477.342,571.89 474.917,588.085C474.657,589.644 476.302,590.655 477.544,589.587C484.155,583.957 492.411,580.839 501.101,582.225C505.229,582.86 508.925,584.65 512.36,586.844C515.478,588.778 518.74,590.482 522.493,589.356C525.813,588.345 528.238,584.91 530.375,582.427C533.319,579.049 536.61,575.989 540.306,573.304C547.061,568.368 555.058,565.365 563.372,565.192C564.382,565.192 565.191,564.182 564.873,563.2C561.813,552.259 552.806,544.579 548.129,534.446C545.935,529.683 541.893,528.326 537.823,525.641C535.138,523.88 532.338,523.072 529.133,523.592C518.076,525.208 510.195,547.409 497.954,539.47C496.28,538.344 494.692,541.086 496.395,542.154C508.578,550.093 516.95,534.158 525.698,528.413C528.007,526.911 530.577,526.161 533.261,526.854C535.138,527.345 536.697,528.73 538.371,529.654C540.739,530.953 542.933,531.964 544.492,534.273C545.993,536.467 547.003,539.152 548.418,541.462C549.977,543.887 551.68,546.283 553.354,548.592C556.79,553.413 560.225,558.35 561.784,564.037C562.275,563.344 562.795,562.738 563.285,562.045C555.346,562.219 547.927,564.788 541.172,568.916C537.476,571.168 534.185,573.968 531.125,576.971C528.007,580.031 525.178,585.227 520.819,586.584C518.509,587.277 515.767,585.285 513.948,584.159C512.129,583.033 510.253,581.965 508.318,581.157C504.623,579.656 500.87,578.847 496.886,578.79C488.832,578.674 481.326,582.34 475.321,587.421C476.187,587.912 477.082,588.432 477.948,588.923C480.315,573.045 485.31,557.426 493.999,543.8C495.096,542.097 492.383,540.538 491.286,542.212L491.286,542.212Z" style="fill:rgb(255,203,21);fill-rule:nonzero;"/>
                    </g>
                    <g>
                        <path d="M354.734,543.049C362.731,555.434 368.418,571.37 370.988,588.547C360.421,579.309 347.315,577.808 335.998,584.477C332.822,586.353 329.56,588.923 326.182,588.172C323.122,587.479 320.697,584.246 318.186,581.359C308.37,570.1 296.245,563.806 284.12,563.604C286.747,553.558 296.736,544.175 300.691,535.226C303.058,529.856 306.638,529.596 310.449,526.969C326.067,516.288 334.699,551.393 350.317,540.769" style="fill:rgb(255,203,21);fill-rule:nonzero;"/>
                        <path d="M353.348,543.8C362.038,557.426 367.032,572.987 369.4,588.923C370.266,588.432 371.161,587.912 372.027,587.421C365.907,582.167 358.66,578.934 350.461,578.79C346.535,578.732 342.638,579.656 339.029,581.157C335.219,582.716 330.83,587.219 326.471,586.584C324.277,586.267 322.545,584.073 321.217,582.571C319.543,580.695 317.897,578.761 316.165,577C313.162,573.939 309.727,571.255 306.089,568.945C299.478,564.701 291.77,562.247 283.976,562.074C284.466,562.767 284.986,563.373 285.477,564.066C288.479,553.269 297.486,545.07 302.336,535.139C303.462,532.83 305.454,531.588 307.591,530.376C309.467,529.365 311.142,528.182 313.018,527.258C315.761,525.959 318.705,526.709 321.217,528.182C330.34,533.551 338.336,550.353 350.895,542.183C352.569,541.057 351.01,538.373 349.336,539.498C343.158,543.511 337.961,539.383 333.458,534.995C329.069,530.751 324.768,525.237 318.648,523.736C315.847,523.043 313.018,523.736 310.535,525.122C306.465,527.316 302.106,529.423 299.652,533.609C296.765,538.546 293.964,543.223 290.702,547.928C287.324,552.692 284.091,557.686 282.503,563.287C282.243,564.297 282.994,565.221 284.005,565.279C292.117,565.539 299.565,568.339 306.263,572.842C309.958,575.354 313.249,578.414 316.251,581.705C318.676,584.39 321.188,588.316 324.883,589.442C328.261,590.51 331.206,589.182 334.121,587.508C337.759,585.372 341.194,583.437 345.38,582.514C354.186,580.522 363.193,584.015 369.89,589.702C371.132,590.77 372.777,589.702 372.518,588.201C370.093,572.092 364.954,556.156 356.149,542.328C354.994,540.538 352.28,542.097 353.348,543.8L353.348,543.8Z" style="fill:rgb(255,203,21);fill-rule:nonzero;"/>
                    </g>
                    <g>
                        <path d="M560.081,310.565C560.081,310.565 562.65,313.626 571.455,329.937C576.334,338.944 579.943,346.421 589.21,347.922C600.96,349.856 612.132,342.062 621.948,334.411C635.199,324.163 648.392,313.654 661.383,302.973C662.134,332.968 661.816,366.139 644.004,388.397C638.143,395.759 630.695,401.33 623.997,407.768C606.012,425.205 580.116,442.96 568.193,466.084C559.388,428.814 569.897,371.682 560.081,310.565" style="fill:black;fill-rule:nonzero;"/>
                    </g>
                    <g>
                        <path d="M273.612,311.518C274.102,308.949 271.042,314.78 262.295,331.9C257.474,341.34 253.865,349.221 244.598,350.838C232.848,352.83 221.676,344.516 211.86,336.519C198.58,325.577 185.387,314.521 172.309,303.204C171.674,334.758 172.136,369.747 190.006,393.247C195.953,400.984 203.373,406.931 210.07,413.744C228.143,432.192 261.689,456.557 273.698,480.981C282.301,441.69 263.998,375.868 273.612,311.518" style="fill:black;fill-rule:nonzero;"/>
                    </g>
                    <g>
                        <path d="M443.709,178.229C447.26,186.052 435.712,192.664 429.823,186.226C429.765,186.168 429.708,186.168 429.563,186.11C429.621,186.11 429.679,186.168 429.736,186.168C429.621,186.11 429.563,186.11 429.361,186.052C429.101,185.995 428.813,185.879 428.553,185.793C426.936,185.302 425.233,184.927 423.558,184.609C420.498,184.061 419.113,183.974 415.677,183.541C411.433,182.992 407.796,180.423 407.623,175.862C329.387,179.874 267.145,244.542 267.145,323.788C267.145,405.574 333.458,409.269 415.244,409.269C497.031,409.269 563.343,405.574 563.343,323.788C563.314,251.384 513.515,191.22 443.709,178.229Z" style="fill:rgb(254,255,255);fill-rule:nonzero;"/>
                    </g>
                    <g>
                        <path d="M587.882,409.125C587.882,497.176 558.204,564.037 426.474,568.599C307.302,572.669 252.508,497.118 249.881,409.125C246.705,302.771 337.297,249.651 426.474,249.651C515.651,249.651 587.882,321.074 587.882,409.125Z" style="fill:rgb(254,255,255);fill-rule:nonzero;"/>
                    </g>
                    <g>
                        <path d="M337.239,259.467C343.302,259.467 343.302,250.084 337.239,250.084C331.177,250.084 331.177,259.467 337.239,259.467L337.239,259.467Z" style="fill:black;fill-rule:nonzero;"/>
                    </g>
                    <g>
                        <path d="M496.222,257.706C502.285,257.706 502.285,248.323 496.222,248.323C490.16,248.323 490.16,257.706 496.222,257.706L496.222,257.706Z" style="fill:black;fill-rule:nonzero;"/>
                    </g>
                    <g>
                        <path d="M414.234,273.151C411.982,248.901 405.862,223.149 389.608,212.468C356.437,190.672 295.235,237.469 295.235,237.469C295.235,237.469 311.228,213.218 331.985,197.658C363.482,174.158 396.277,175.4 416.601,175.486L415.735,175.429C436.03,177.363 467.093,174.187 499.023,197.687C520.068,213.19 536.841,237.295 536.841,237.295C536.841,237.295 474.282,190.643 440.649,212.468C424.222,223.149 418.015,248.901 415.706,273.151" style="fill:black;fill-rule:nonzero;"/>
                    </g>
                    <g>
                        <path d="M394.227,271.707C404.303,278.636 426.099,277.452 434.846,269.773C435.279,269.398 435.655,268.907 435.857,268.272C436.867,265.76 435.222,262.902 432.854,262.902L391.918,263.076L394.227,271.707Z" style="fill:rgb(255,203,21);fill-rule:nonzero;"/>
                        <path d="M393.419,273.007C402.801,279.185 416.283,278.867 426.59,275.749C430.66,274.508 436.29,272.256 437.531,267.81C438.542,264.115 435.337,261.315 432.046,261.315C418.679,261.372 405.226,261.43 391.86,261.488C390.85,261.488 390.099,262.498 390.359,263.48C391.167,266.367 391.918,269.225 392.726,272.112C393.275,274.046 396.277,273.238 395.728,271.303C394.92,268.416 394.17,265.558 393.361,262.671C392.87,263.364 392.351,263.971 391.86,264.663C403.667,264.606 415.417,264.548 427.225,264.548C429.044,264.548 430.862,264.548 432.652,264.548C436.78,264.548 433.778,268.792 432.537,269.658C430.545,271.101 428.149,272.083 425.781,272.833C416.341,275.951 403.523,276.009 394.978,270.408C393.275,269.196 391.716,271.938 393.419,273.007Z" style="fill:rgb(255,203,21);fill-rule:nonzero;"/>
                    </g>
                </g>
            </g>
            <path d="M413.553,54.7125C444.507,54.7125 698.209,201.187 713.686,227.994C729.163,254.801 729.163,547.751 713.686,574.558C698.209,601.364 444.507,747.839 413.553,747.839C382.6,747.839 128.898,601.364 113.421,574.558C97.9438,547.751 97.9438,254.801 113.421,227.994C128.898,201.187 382.6,54.7125 413.553,54.7125Z" style="fill:none;stroke-width:33.33px;stroke:rgb(12,48,64);"/>
        </g>
    </g>
</svg>
