<?xml version="1.0" standalone="no"?>
<!DOCTYPE svg PUBLIC "-//W3C//DTD SVG 1.1//EN" "http://www.w3.org/Graphics/SVG/1.1/DTD/svg11.dtd">
<svg width="800px" height="800px" version="1.1" xmlns="http://www.w3.org/2000/svg" xmlns:xlink="http://www.w3.org/1999/xlink" xml:space="preserve" style="fill-rule:evenodd;clip-rule:evenodd;stroke-linecap:round;stroke-linejoin:round;stroke-miterlimit:1.41421;">
    <g>
        <g>
            <path d="M413.553,54.7125C444.507,54.7125 698.209,201.187 713.686,227.994C729.163,254.801 729.163,547.751 713.686,574.558C698.209,601.364 444.507,747.839 413.553,747.839C382.6,747.839 128.898,601.364 113.421,574.558C97.9438,547.751 97.9438,254.801 113.421,227.994C128.898,201.187 382.6,54.7125 413.553,54.7125Z" style="fill:white;"/>
            <clipPath id="tag1">
                <path d="M413.553,54.7125C444.507,54.7125 698.209,201.187 713.686,227.994C729.163,254.801 729.163,547.751 713.686,574.558C698.209,601.364 444.507,747.839 413.553,747.839C382.6,747.839 128.898,601.364 113.421,574.558C97.9438,547.751 97.9438,254.801 113.421,227.994C128.898,201.187 382.6,54.7125 413.553,54.7125Z"/>
            </clipPath>
            <g clip-path="url(#tag1)">
                <g>
                    <path d="M284.709,428.784L284.709,466.089C284.709,484.741 276.501,491.456 263.445,491.456C250.388,491.456 242.181,484.741 242.181,466.089L242.181,325.076C242.181,306.423 250.388,299.335 263.445,299.335C276.501,299.335 284.709,306.423 284.709,325.076L284.709,353.054L323.506,353.054L323.506,327.687C323.506,285.905 302.615,262.03 262.325,262.03C222.036,262.03 201.145,285.905 201.145,327.687L201.145,463.477C201.145,505.259 222.036,529.134 262.325,529.134C302.615,529.134 323.506,505.259 323.506,463.477L323.506,428.784L284.709,428.784Z" style="fill:rgb(198,57,38);"/>
                    <path d="M389.536,414.235L436.167,414.235L436.167,526.15L477.949,526.15L477.949,265.014L436.167,265.014L436.167,376.93L389.536,376.93L389.536,265.014L348.5,265.014L348.5,526.15L389.536,526.15L389.536,414.235Z" style="fill:rgb(198,57,38);"/>
                    <path d="M548.828,302.319L619.708,302.319L619.708,265.014L507.793,265.014L507.793,526.15L619.708,526.15L619.708,488.845L548.828,488.845L548.828,412.369L605.159,412.369L605.159,375.064L548.828,375.064L548.828,302.319Z" style="fill:rgb(198,57,38);"/>
                </g>
            </g>
            <path d="M413.553,54.7125C444.507,54.7125 698.209,201.187 713.686,227.994C729.163,254.801 729.163,547.751 713.686,574.558C698.209,601.364 444.507,747.839 413.553,747.839C382.6,747.839 128.898,601.364 113.421,574.558C97.9438,547.751 97.9438,254.801 113.421,227.994C128.898,201.187 382.6,54.7125 413.553,54.7125Z" style="fill:none;stroke-width:33.33px;stroke:rgb(198,57,38);"/>
        </g>
    </g>
</svg>
