<?xml version="1.0" standalone="no"?>
<!DOCTYPE svg PUBLIC "-//W3C//DTD SVG 1.1//EN" "http://www.w3.org/Graphics/SVG/1.1/DTD/svg11.dtd">
<svg width="800px" height="800px" version="1.1" xmlns="http://www.w3.org/2000/svg" xmlns:xlink="http://www.w3.org/1999/xlink" xml:space="preserve" style="fill-rule:evenodd;clip-rule:evenodd;stroke-linecap:round;stroke-linejoin:round;stroke-miterlimit:1.41421;">
    <g>
        <g>
            <path d="M413.553,54.7125C444.507,54.7125 698.209,201.187 713.686,227.994C729.163,254.801 729.163,547.751 713.686,574.558C698.209,601.364 444.507,747.839 413.553,747.839C382.6,747.839 128.898,601.364 113.421,574.558C97.9438,547.751 97.9438,254.801 113.421,227.994C128.898,201.187 382.6,54.7125 413.553,54.7125Z" style="fill:white;stroke-width:33.33px;stroke:rgb(51,103,214);"/>
        </g>
        <g>
            <path d="M636.159,493.468C618.993,480.928 601.828,468.298 584.751,455.758C583.328,454.691 581.55,453.534 579.86,454.691C574.79,457.181 569.809,460.116 565.007,463.051C562.161,464.474 561.716,467.854 560.915,470.7C559.048,478.526 556.468,486.175 552.466,493.202C547.663,501.829 540.192,508.766 531.743,513.747C522.226,519.083 511.643,521.84 501.059,524.331C503.816,520.506 508.263,518.638 511.909,515.881C525.428,506.276 538.414,493.646 542.327,476.926C544.462,469.277 542.594,461.361 540.726,453.89C533.522,424.006 522.849,395.19 514.667,365.572C513.066,359.969 511.376,354.277 510.664,348.496C518.135,348.585 525.695,347.873 533.166,348.941C547.752,352.143 554.423,367.974 568.12,372.688C575.946,374.378 584.662,373.043 590.977,367.796C598.982,361.481 602.984,349.919 599.16,340.313C588.398,319.235 566.341,305.983 543.75,301.18C527.652,297.978 510.753,298.689 494.922,303.225C485.494,270.407 475.8,237.677 465.127,205.213C463.615,200.411 462.192,195.43 459.524,191.072C453.031,180.577 442.091,173.195 430.173,170.26C419.945,169.282 409.272,168.837 399.4,172.306C354.841,184.135 310.282,196.319 265.901,208.682C249.447,213.307 236.373,227.893 233.438,244.703C232.815,251.373 232.548,258.222 234.327,264.714C246.779,303.225 258.074,342.092 269.725,380.781C267.769,379.803 265.634,378.914 263.766,377.757C253.983,371.887 246.423,363.082 236.818,357.034C223.654,350.275 207.111,359.791 202.131,372.688C200.797,378.469 200.619,385.05 203.91,390.209C208.268,397.591 213.693,404.439 220.453,409.687C238.418,424.095 261.899,430.766 284.756,429.698C289.737,445.53 294.984,461.361 300.41,477.103C301.566,480.839 303.701,484.485 303.345,488.399C300.854,491.868 297.475,494.625 294.806,497.915C277.285,518.727 268.302,545.232 264.211,571.825C248.647,577.339 231.481,585.521 224.633,601.709C250.87,607.045 277.463,610.514 303.878,614.872C306.724,609.535 308.148,603.665 310.638,598.151C315.53,586.856 321.933,576.183 330.738,567.467C343.368,554.215 361.601,546.744 379.833,546.032C411.14,544.253 439.957,559.462 470.73,562.308C487.629,563.553 504.972,563.464 521.426,558.662C547.752,551.546 571.144,535.092 587.686,513.569C607.431,515.17 627.976,511.701 644.964,501.206C643.096,497.738 639.272,495.959 636.159,493.468ZM431.774,510.1C423.058,511.168 414.164,502.718 415.409,493.913C415.143,488.844 419.056,484.752 423.236,482.44C432.397,478.082 444.849,483.863 446.449,494.091C448.05,502.629 439.957,510.189 431.774,510.1ZM490.297,426.141C488.518,434.234 482.381,441.35 474.377,443.84C450.452,451.933 425.726,457.448 401.357,464.296C389.795,467.409 378.41,471.056 366.759,473.635C359.377,474.346 351.372,474.969 344.88,470.789C336.253,466.164 332.161,456.647 329.404,447.753C312.506,391.81 295.518,335.866 278.264,280.012C275.506,270.673 272.216,259.823 277.641,250.751C282.977,240.878 294.718,238.032 304.679,235.097C328.07,228.871 351.372,222.29 374.764,216.064C382.413,214.285 389.706,210.995 397.532,209.66C408.205,207.704 420.568,210.016 428.128,218.288C432.486,223.001 433.731,229.405 435.777,235.275C453.831,292.197 470.819,349.385 488.34,406.396C490.742,412.8 491.542,419.648 490.297,426.141Z" style="fill:rgb(51,103,214);fill-rule:nonzero;"/>
        </g>
    </g>
</svg>
