<?xml version="1.0" standalone="no"?><!DOCTYPE svg PUBLIC "-//W3C//DTD SVG 1.1//EN" "http://www.w3.org/Graphics/SVG/1.1/DTD/svg11.dtd"><svg width="800px" height="800px" version="1.1" xmlns="http://www.w3.org/2000/svg" xmlns:xlink="http://www.w3.org/1999/xlink" xml:space="preserve" style="fill-rule:evenodd;clip-rule:evenodd;stroke-linecap:round;stroke-linejoin:round;stroke-miterlimit:1.41421;"><g><g transform="matrix(1.66058,0,0,1.66058,-103.569,-361.481)"><path d="M311.41,250.631c18.6403,0 171.419,88.2068 180.739,104.35c9.32015,16.143 9.32015,192.557 1.13687e-13,208.7c-9.32015,16.143 -162.099,104.35 -180.739,104.35c-18.6403,0 -171.419,-88.2068 -180.739,-104.35c-9.32015,-16.143 -9.32015,-192.557 -1.13687e-13,-208.7c9.32015,-16.143 162.099,-104.35 180.739,-104.35Z" style="fill:#222322;"/><clipPath id="tag1"><path d="M311.41,250.631c18.6403,0 171.419,88.2068 180.739,104.35c9.32015,16.143 9.32015,192.557 1.13687e-13,208.7c-9.32015,16.143 -162.099,104.35 -180.739,104.35c-18.6403,0 -171.419,-88.2068 -180.739,-104.35c-9.32015,-16.143 -9.32015,-192.557 -1.13687e-13,-208.7c9.32015,-16.143 162.099,-104.35 180.739,-104.35Z"/></clipPath><g clip-path="url(#tag1)"><g transform="matrix(1.40505,0,0,1.40505,39.6325,180.305)"><path d="M157.373,127.7c0,0 -4.704,-3.605 0,-10.971c0,0 21.313,-13.636 20.218,-24.295c0,0 16.928,11.441 7.679,35.266c0,0 -6.87,8.935 -14.407,8.306c0,0 -8.788,-2.036 -13.49,-8.306" style="fill:#f37231;fill-rule:nonzero;"/></g><g transform="matrix(1.40505,0,0,1.40505,39.6325,180.305)"><path d="M181.667,102.151c0,0 3.448,-17.553 12.067,-21.001c0,0 -2.35,12.537 9.248,31.817c0,0 7.521,21.786 -12.226,23.825c0,0 -12.852,-0.471 -10.657,-16.145l1.568,-18.496Z" style="fill:#f37231;fill-rule:nonzero;"/></g><g transform="matrix(1.40505,0,0,1.40505,39.6325,180.305)"><path d="M192.95,87.8882c0,0 17.553,10.66 20.532,19.906c0,0 6.74,16.927 -1.569,26.489c0,0 -21.314,10.972 -21.471,-0.942" style="fill:#f37231;fill-rule:nonzero;"/></g><g transform="matrix(1.40505,0,0,1.40505,39.6325,180.305)"><path d="M200.628,132.872l9.717,7.21l9.25,-1.19c5.174,-0.41 8.308,-8.214 8.308,-8.214c7.207,-16.613 -19.529,-30.593 -19.529,-30.593" style="fill:#f37231;fill-rule:nonzero;"/></g><g transform="matrix(1.40505,0,0,1.40505,39.6325,180.305)"><path d="M177.591,92.4341c0,0 8.278,28.809 -15.608,39.559c0,0 -11.506,-6.019 -4.61,-15.265c0,0 20.218,-12.853 20.218,-24.294" style="fill:#d95727;fill-rule:nonzero;"/></g><g transform="matrix(1.40505,0,0,1.40505,39.6325,180.305)"><path d="M193.734,81.1499c0,0 -5.964,1.042 -10.942,16.613c0,0 12.973,22.675 -1.129,33.674c0,0 1.499,3.144 4.689,4.171c0,0 9.259,2.996 11.704,-10.551c0,0 1.119,-9.742 0.639,-12.297c-0.625,-3.305 -3.26,-10.644 -3.76,-16.342c-0.637,-7.312 -1.201,-14.108 -1.201,-15.268" style="fill:#d95727;fill-rule:nonzero;"/></g><g transform="matrix(1.40505,0,0,1.40505,39.6325,180.305)"><path d="M194.279,88.7319c0,0 32.967,33.754 11.631,48.06c0,0 -3.953,-12.566 -2.955,-25.488c0.732,-9.506 -4.467,-18.169 -8.676,-22.572" style="fill:#d95727;fill-rule:nonzero;"/></g><g transform="matrix(1.40505,0,0,1.40505,39.6325,180.305)"><path d="M207.744,99.4282c0,0 30.658,29.369 2.602,40.653l13.324,-1.19c0,0 22.06,-17.889 -15.926,-39.463" style="fill:#d95727;fill-rule:nonzero;"/></g><g transform="matrix(1.40505,0,0,1.40505,39.6325,180.305)"><path d="M239.847,126.135l-6.191,11.042l-2.612,10.178l-1.726,0.074l-1.801,7.311l-2.881,0.145l-1.85,5.294l-5.722,0.046l-2.805,8.499l-41.916,0l-2.068,-8.499l-4.888,0l-1.863,-5.485l-2.952,0.017l-1.572,-7.328l-2.138,0l-2.642,-10.252l-6.717,-11.042" style="fill:#fdc745;fill-rule:nonzero;"/></g><g transform="matrix(1.40505,0,0,1.40505,39.6325,180.305)"><path d="M154.22,137.177l79.436,0l-2.611,10.178l-74.182,0.074l-2.643,-10.252Z" style="fill:#f2b130;fill-rule:nonzero;"/></g><g transform="matrix(1.40505,0,0,1.40505,39.6325,180.305)"><path d="M193.423,126.135l0,11.042l40.232,0l7.053,-11.042" style="fill:#e0a42a;fill-rule:nonzero;"/></g><g transform="matrix(1.40505,0,0,1.40505,39.6325,180.305)"><path d="M193.423,137.177l0,10.178l37.621,0l2.611,-10.178l-40.232,0Z" style="fill:#d2962a;fill-rule:nonzero;"/></g><g transform="matrix(1.40505,0,0,1.40505,39.6325,180.305)"><path d="M193.423,147.355l0,21.369l20.836,0l2.805,-8.499l6.146,-0.048l1.426,-5.292l2.881,-0.144l1.806,-7.312" style="fill:#e0a42a;fill-rule:nonzero;"/></g><g transform="matrix(1.40505,0,0,1.40505,39.6325,180.305)"><path d="M208.706,177.27l-2.645,14.55l-26.254,0l-2.747,-14.55" style="fill:#f2b130;fill-rule:nonzero;"/></g><g transform="matrix(1.40505,0,0,1.40505,39.6325,180.305)"><path d="M170.956,173.391l3.251,3.839l37.501,0.14l4.122,-4.121" style="fill:#2e1208;fill-rule:nonzero;"/></g><g transform="matrix(1.40505,0,0,1.40505,39.6325,180.305)"><path d="M170.856,168.724l44.722,0l0,2.668l1.375,0l0,2.139l-48.694,0l0,-2.06l2.062,0l0.228,-2.747" style="fill:#49230d;fill-rule:nonzero;"/></g><g transform="matrix(1.40505,0,0,1.40505,39.6325,180.305)"><path d="M193.423,177.371l0,14.449l12.639,0l2.644,-14.449" style="fill:#e0a42a;fill-rule:nonzero;"/></g><g transform="matrix(1.40505,0,0,1.40505,39.6325,180.305)"><path d="M204.107,191.818l-3.457,76.116l-15.876,0l-2.035,-76.116" style="fill:#7e4f21;fill-rule:nonzero;"/></g><g transform="matrix(1.40505,0,0,1.40505,39.6325,180.305)"><path d="M179.734,267.934l3.26,3.258l18.716,0l3.463,-3.258l-25.439,0Z" style="fill:#f2b130;fill-rule:nonzero;"/></g><g transform="matrix(1.40505,0,0,1.40505,39.6325,180.305)"><rect x="183.6" y="271.192" width="17.707" height="10.178" style="fill:#2e1208;fill-rule:nonzero;"/></g><g transform="matrix(1.40505,0,0,1.40505,39.6325,180.305)"><path d="M193.423,160.225l0,8.499l22.107,0l1.534,-8.499l-23.641,0Z" style="fill:#d2962a;fill-rule:nonzero;"/></g><g transform="matrix(1.40505,0,0,1.40505,39.6325,180.305)"><path d="M170.276,160.225l23.2,0l-0.053,8.499l-21.081,0l-2.066,-8.499Z" style="fill:#f2b130;fill-rule:nonzero;"/></g><g transform="matrix(1.40505,0,0,1.40505,39.6325,180.305)"><path d="M193.443,267.993l-0.043,3.199l8.311,0l3.462,-3.258" style="fill:#e0a42a;fill-rule:nonzero;"/></g><g transform="matrix(1.40505,0,0,1.40505,39.6325,180.305)"><path d="M193.423,191.82l0,76.114l7.227,0l3.457,-76.116" style="fill:#744318;fill-rule:nonzero;"/></g><g transform="matrix(1.40505,0,0,1.40505,39.6325,180.305)"><path d="M125.88,159.881c0,0 -22.928,0.327 -17.715,25.878l85.354,29.767l-67.639,-55.645Z" style="fill:#f6dc9b;fill-rule:nonzero;"/></g><g transform="matrix(1.40505,0,0,1.40505,39.6325,180.305)"><path d="M193.519,215.526l-70.413,-38.831l2.774,-16.814l67.639,55.645Z" style="fill:#e5c685;fill-rule:nonzero;"/></g><g transform="matrix(1.40505,0,0,1.40505,39.6325,180.305)"><path d="M123.106,176.695l-14.941,9.064l85.354,29.767l-70.413,-38.831Z" style="fill:#f8e2b9;fill-rule:nonzero;"/></g><g transform="matrix(1.40505,0,0,1.40505,39.6325,180.305)"><path d="M260.773,159.881c0,0 22.93,0.327 17.715,25.878l-85.355,29.767l67.64,-55.645Z" style="fill:#f6dc9b;fill-rule:nonzero;"/></g><g transform="matrix(1.40505,0,0,1.40505,39.6325,180.305)"><path d="M193.133,215.526l70.417,-38.831l-2.777,-16.814l-67.64,55.645Z" style="fill:#e5c685;fill-rule:nonzero;"/></g><g transform="matrix(1.40505,0,0,1.40505,39.6325,180.305)"><path d="M263.55,176.695l14.938,9.064l-85.355,29.767l70.417,-38.831Z" style="fill:#f8e2b9;fill-rule:nonzero;"/></g><g transform="matrix(1.40505,0,0,1.40505,39.6325,180.305)"><path d="M126.071,271.167c0,0 -22.927,-0.324 -17.715,-25.877l85.356,-29.764l-67.641,55.641Z" style="fill:#f6dc9b;fill-rule:nonzero;"/></g><g transform="matrix(1.40505,0,0,1.40505,39.6325,180.305)"><path d="M193.712,215.526l-70.415,38.83l2.774,16.811l67.641,-55.641Z" style="fill:#e5c685;fill-rule:nonzero;"/></g><g transform="matrix(1.40505,0,0,1.40505,39.6325,180.305)"><path d="M123.298,254.356l-14.941,-9.066l85.356,-29.764l-70.415,38.83Z" style="fill:#f8e2b9;fill-rule:nonzero;"/></g><g transform="matrix(1.40505,0,0,1.40505,39.6325,180.305)"><path d="M260.968,271.167c0,0 22.926,-0.324 17.713,-25.877l-85.354,-29.764l67.641,55.641Z" style="fill:#f6dc9b;fill-rule:nonzero;"/></g><g transform="matrix(1.40505,0,0,1.40505,39.6325,180.305)"><path d="M193.328,215.526l70.414,38.83l-2.773,16.811l-67.641,-55.641Z" style="fill:#e5c685;fill-rule:nonzero;"/></g><g transform="matrix(1.40505,0,0,1.40505,39.6325,180.305)"><path d="M263.742,254.356l14.939,-9.066l-85.353,-29.764l70.414,38.83Z" style="fill:#f8e2b9;fill-rule:nonzero;"/></g><g transform="matrix(1.40505,0,0,1.40505,39.6325,180.305)"><path d="M183.965,237.651l0.246,9.217l-35.569,0l45.071,-66.571l44.595,66.571l-36.703,0l0.42,-9.215l17.906,-0.008l-26.455,-40.862l-27.839,40.893l18.328,-0.025Z" style="fill:#bcbfbf;fill-rule:nonzero;"/></g><g transform="matrix(1.40505,0,0,1.40505,39.6325,180.305)"><path d="M193.4,271.192l0.023,8.572l7.883,2.211l0,-10.783l-7.906,0Z" style="fill:#180001;fill-rule:nonzero;"/></g><g transform="matrix(1.40505,0,0,1.40505,39.6325,180.305)"><path d="M206.111,287.415c0,4.436 -5.922,8.037 -13.226,8.037c-7.306,0 -13.228,-3.601 -13.228,-8.037c0,-4.441 5.922,-8.041 13.228,-8.041c7.304,0 13.226,3.6 13.226,8.041" style="fill:#f2b130;fill-rule:nonzero;"/></g><g transform="matrix(1.40505,0,0,1.40505,39.6325,180.305)"><path d="M206.111,287.415c0,4.436 -5.684,7.422 -11.576,8.037c-5.437,0.568 -5.687,-16.389 0.463,-15.959c5.549,0.389 11.113,3.481 11.113,7.922" style="fill:#cf922b;fill-rule:nonzero;"/></g></g><path d="M311.41,250.631c18.6403,0 171.419,88.2068 180.739,104.35c9.32015,16.143 9.32015,192.557 1.13687e-13,208.7c-9.32015,16.143 -162.099,104.35 -180.739,104.35c-18.6403,0 -171.419,-88.2068 -180.739,-104.35c-9.32015,-16.143 -9.32015,-192.557 -1.13687e-13,-208.7c9.32015,-16.143 162.099,-104.35 180.739,-104.35Z" style="fill:none;stroke-width:20.07px;stroke:#8c8c8c;"/></g></g></svg>