<?xml version="1.0" standalone="no"?>
<!DOCTYPE svg PUBLIC "-//W3C//DTD SVG 1.1//EN" "http://www.w3.org/Graphics/SVG/1.1/DTD/svg11.dtd">
<svg width="800px" height="800px" version="1.1" xmlns="http://www.w3.org/2000/svg" xmlns:xlink="http://www.w3.org/1999/xlink" xml:space="preserve" style="fill-rule:evenodd;clip-rule:evenodd;stroke-linecap:round;stroke-linejoin:round;stroke-miterlimit:1.41421;">
    <g>
        <g>
            <path d="M413.553,54.7125C444.507,54.7125 698.209,201.187 713.686,227.994C729.163,254.801 729.163,547.751 713.686,574.558C698.209,601.364 444.507,747.839 413.553,747.839C382.6,747.839 128.898,601.364 113.421,574.558C97.9438,547.751 97.9438,254.801 113.421,227.994C128.898,201.187 382.6,54.7125 413.553,54.7125Z" style="fill:rgb(11,11,11);"/>
            <clipPath id="tag1">
                <path d="M413.553,54.7125C444.507,54.7125 698.209,201.187 713.686,227.994C729.163,254.801 729.163,547.751 713.686,574.558C698.209,601.364 444.507,747.839 413.553,747.839C382.6,747.839 128.898,601.364 113.421,574.558C97.9438,547.751 97.9438,254.801 113.421,227.994C128.898,201.187 382.6,54.7125 413.553,54.7125Z"/>
            </clipPath>
            <g clip-path="url(#tag1)">
                <g>
                    <path d="M386.131,513.796C355.18,513.796 327.207,495.571 314.905,486.244C276.437,495.607 248.09,489.921 230.715,470.022C218.201,455.687 214.984,437.32 214.407,424.882C191.458,416.596 161.063,392.595 161.063,357.642C161.063,310.326 190.922,282.081 240.943,282.081C245.05,282.081 248.864,282.278 252.253,282.556C259.224,262.096 273.473,245.439 294.784,232.909C317.637,219.469 339.681,212.661 360.314,212.661C393.577,212.661 415.085,229.96 426.132,242.191C438.373,236.511 450.235,233.648 461.515,233.648C501.648,233.648 521.866,267.913 529.655,285.733C576.187,289.861 596.314,320.903 599.49,350.064C602.985,382.104 588.276,412.939 565.423,425.18C564.664,441.498 559.474,454.898 549.929,465.131C537.091,478.889 517.349,485.864 491.243,485.864C491.243,485.864 491.243,485.864 491.238,485.864C474.601,485.864 458.698,482.986 448.591,480.665C428.095,507.767 403.734,513.796 386.131,513.796ZM318.446,454.523C322.134,454.523 325.745,455.874 328.558,458.403C328.816,458.631 357.122,483.538 386.131,483.538C403.476,483.538 417.574,474.337 429.218,455.414C432.845,449.531 439.997,446.86 446.583,448.893C446.785,448.949 468.668,455.596 491.238,455.596C503.18,455.596 519.225,453.673 527.804,444.477C533.52,438.352 535.968,428.746 535.078,415.918C534.562,408.447 539.59,401.725 546.894,400.101C560.759,397.026 571.7,374.294 569.419,353.337C567.876,339.235 559.287,315.572 519.048,315.521C512.346,315.511 506.443,311.09 504.556,304.661C504.45,304.302 491.89,263.901 461.52,263.901C452.157,263.901 441.459,267.473 429.734,274.509C426.254,276.598 422.081,277.195 418.145,276.178C414.215,275.161 410.861,272.602 408.833,269.091C408.251,268.115 392.834,242.915 360.319,242.915C345.154,242.915 328.269,248.322 310.125,258.995C291.632,269.87 281.586,283.492 278.526,301.859C277.848,305.951 275.506,309.588 272.067,311.91C268.627,314.231 264.373,315.041 260.326,314.14C260.281,314.13 251.899,312.345 240.953,312.345C219.653,312.345 191.331,317.039 191.331,357.642C191.331,381.75 222.389,397.794 229.835,397.805C234.195,397.81 238.363,399.701 241.226,402.989C244.094,406.277 245.41,410.653 244.828,414.972C244.808,415.124 242.172,437.244 253.599,450.214C259.639,457.057 268.875,460.386 281.839,460.386C291.101,460.386 302.017,458.605 314.309,455.105C315.664,454.721 317.06,454.523 318.446,454.523Z" style="fill:white;fill-rule:nonzero;"/>
                </g>
                <g>
                    <path d="M614.534,560.414C585.671,560.414 562.18,537.823 562.18,510.068C562.18,482.303 585.671,459.718 614.534,459.718C643.401,459.718 666.892,482.303 666.892,510.068C666.892,537.823 643.401,560.414 614.534,560.414ZM614.534,489.977C602.353,489.977 592.444,498.986 592.444,510.068C592.444,521.141 602.353,530.155 614.534,530.155C626.719,530.155 636.628,521.146 636.628,510.068C636.633,498.986 626.724,489.977 614.534,489.977Z" style="fill:white;fill-rule:nonzero;"/>
                </g>
                <g>
                    <path d="M320.313,422.863L266.69,369.22L319.716,311.515L334.572,325.167L294.622,368.633L334.582,408.599Z" style="fill:white;fill-rule:nonzero;"/>
                </g>
                <g>
                    <path d="M439.754,422.863L425.49,408.599L465.455,368.633L425.5,325.167L440.356,311.515L493.387,369.22Z" style="fill:white;fill-rule:nonzero;"/>
                </g>
                <g>
                    <path d="M391.24,312.376L409.532,320.879L362.528,422.001L344.236,413.498L391.24,312.376Z" style="fill:white;"/>
                </g>
            </g>
            <path d="M413.553,54.7125C444.507,54.7125 698.209,201.187 713.686,227.994C729.163,254.801 729.163,547.751 713.686,574.558C698.209,601.364 444.507,747.839 413.553,747.839C382.6,747.839 128.898,601.364 113.421,574.558C97.9438,547.751 97.9438,254.801 113.421,227.994C128.898,201.187 382.6,54.7125 413.553,54.7125Z" style="fill:none;stroke-width:33.33px;stroke:rgb(89,89,89);"/>
        </g>
    </g>
</svg>
